<?xml version="1.0" encoding="UTF-8" standalone="no"?>
<!-- Generator: Adobe Illustrator 19.0.0, SVG Export Plug-In . SVG Version: 6.00 Build 0)  -->

<svg
   xmlns:dc="http://purl.org/dc/elements/1.1/"
   xmlns:cc="http://creativecommons.org/ns#"
   xmlns:rdf="http://www.w3.org/1999/02/22-rdf-syntax-ns#"
   xmlns:svg="http://www.w3.org/2000/svg"
   xmlns="http://www.w3.org/2000/svg"
   xmlns:sodipodi="http://sodipodi.sourceforge.net/DTD/sodipodi-0.dtd"
   xmlns:inkscape="http://www.inkscape.org/namespaces/inkscape"
   version="1.1"
   id="Layer_1"
   x="0px"
   y="0px"
   viewBox="0 0 521.3 262.89999"
   xml:space="preserve"
   sodipodi:docname="blue-logo.svg"
   width="521.29999"
   height="262.89999"
   inkscape:version="0.92.0 r15299"><metadata
     id="metadata51"><rdf:RDF><cc:Work
         rdf:about=""><dc:format>image/svg+xml</dc:format><dc:type
           rdf:resource="http://purl.org/dc/dcmitype/StillImage" /></cc:Work></rdf:RDF></metadata><defs
     id="defs49" /><sodipodi:namedview
     pagecolor="#ffffff"
     bordercolor="#666666"
     borderopacity="1"
     objecttolerance="10"
     gridtolerance="10"
     guidetolerance="10"
     inkscape:pageopacity="0"
     inkscape:pageshadow="2"
     inkscape:window-width="1920"
     inkscape:window-height="1017"
     id="namedview47"
     showgrid="false"
     inkscape:zoom="1.1212733"
     inkscape:cx="44.241436"
     inkscape:cy="47.221687"
     inkscape:window-x="-8"
     inkscape:window-y="-8"
     inkscape:window-maximized="1"
     inkscape:current-layer="Layer_1" /><style
     type="text/css"
     id="style2">
	.st0{fill:#56BED5;}
	.st1{fill:#575756;}
</style><g
     id="g40"
     transform="translate(-36.4,-290.6)"><g
       id="g38"><g
         id="g14"><path
           style="fill:#56bed5"
           inkscape:connector-curvature="0"
           class="st0"
           d="m 51.6,535.1 c -9,1.1 -15.2,-4.3 -15.2,-14.1 v -32.8 h 6.3 v 8.3 h 8.8 v 6.1 H 42.7 V 521 c 0,6.8 4.1,8.6 8.9,8.3 z"
           id="path4" /><path
           style="fill:#56bed5"
           inkscape:connector-curvature="0"
           class="st0"
           d="m 58.9,490.6 v -4.8 c 0,-1.7 1.4,-3.1 3.2,-3.1 1.8,0 3.2,1.4 3.2,3.1 v 4.8 z m 6.4,44.5 h -6.4 v -38.7 h 6.4 z"
           id="path6" /><path
           style="fill:#56bed5"
           inkscape:connector-curvature="0"
           class="st0"
           d="m 115.3,515.6 c 0,11.5 -8.4,20.3 -19.4,20.3 -10.7,0 -19.4,-8.7 -19.4,-20.3 0,-11.6 8.6,-20.2 19.3,-20.2 5.4,0 10.2,2.6 13.4,6.5 v -22.7 h 6.2 v 36.4 z M 95.9,501.3 c -7.2,0 -13.1,6.3 -13.1,14.3 0,8.2 5.9,14.5 13.1,14.5 7.1,0 13.1,-6.5 13.1,-14.5 -0.1,-7.9 -6,-14.3 -13.1,-14.3 z"
           id="path8" /><path
           style="fill:#56bed5"
           inkscape:connector-curvature="0"
           class="st0"
           d="m 161.9,535.1 h -6.2 v -6 c -3,4.2 -7.9,7 -13.4,7 -10.7,0 -19.3,-8.7 -19.3,-20.3 0,-11.6 8.7,-20.3 19.4,-20.3 11,0 19.4,8.9 19.4,20.3 v 19.3 z m -19.4,-33.8 c -7.2,0 -13.1,6.4 -13.1,14.5 0,8.1 5.9,14.3 13.1,14.3 7.1,0 13.1,-6.4 13.1,-14.3 0,-8.1 -6,-14.5 -13.1,-14.5 z"
           id="path10" /><path
           style="fill:#56bed5"
           inkscape:connector-curvature="0"
           class="st0"
           d="m 172.1,479.2 h 6.3 v 41.5 c 0,6.8 4.2,8.6 9,8.3 v 6 c -9.1,1.1 -15.3,-4.3 -15.3,-14.1 z"
           id="path12" /></g><g
         id="g36"><path
           style="fill:#575756"
           inkscape:connector-curvature="0"
           class="st1"
           d="m 266.3,534.5 h -6.4 v -25 c 0,-5 -3.3,-8.8 -8.4,-8.8 -5.1,0 -8.4,3.8 -8.4,8.8 v 25 h -6.4 v -25 c 0,-5 -3.3,-8.8 -8.4,-8.8 -5.1,0 -8.4,3.8 -8.4,8.8 v 25 h -6.4 v -24.8 c 0,-8.4 6.1,-14.9 14.8,-14.9 5.3,0 9.3,2.5 11.6,6.4 2.3,-3.9 6.4,-6.4 11.6,-6.4 8.8,0 14.8,6.5 14.8,14.9 z"
           id="path16" /><path
           style="fill:#575756"
           inkscape:connector-curvature="0"
           class="st1"
           d="m 276.9,490 v -4.8 c 0,-1.7 1.4,-3.1 3.2,-3.1 1.8,0 3.2,1.4 3.2,3.1 v 4.8 z m 6.3,44.5 h -6.4 v -38.7 h 6.4 z"
           id="path18" /><path
           style="fill:#575756"
           inkscape:connector-curvature="0"
           class="st1"
           d="m 330.2,532.7 c 0,12.4 -8,20.8 -19.9,20.8 -9.1,0 -16.2,-4.9 -18.2,-12.8 h 6.8 c 2.6,5.8 8.7,6.6 11.5,6.6 10,0 13.6,-7.7 13.6,-14.6 V 529 c -3,4 -7.7,6.5 -13.2,6.5 -10.7,0 -19.3,-8.7 -19.3,-20.3 0,-11.6 8.7,-20.3 19.4,-20.3 11,0 19.4,8.9 19.4,20.3 v 17.5 z m -19.3,-32 c -7.2,0 -13.1,6.4 -13.1,14.5 0,8.1 5.9,14.3 13.1,14.3 7.1,0 13.1,-6.4 13.1,-14.3 -0.1,-8 -6.1,-14.5 -13.1,-14.5 z"
           id="path20" /><path
           style="fill:#575756"
           inkscape:connector-curvature="0"
           class="st1"
           d="m 357.2,495.1 v 5.9 c -7.4,-0.7 -12.2,2.9 -12.2,10.4 v 23.1 h -6.3 v -23 c 0.1,-11.7 8.4,-17.6 18.5,-16.4 z"
           id="path22" /><path
           style="fill:#575756"
           inkscape:connector-curvature="0"
           class="st1"
           d="m 399.9,534.5 h -6.2 v -6 c -3,4.2 -7.9,7 -13.4,7 -10.7,0 -19.3,-8.7 -19.3,-20.3 0,-11.6 8.7,-20.3 19.4,-20.3 11,0 19.4,8.9 19.4,20.3 v 19.3 z m -19.3,-33.8 c -7.2,0 -13.1,6.4 -13.1,14.5 0,8.1 5.9,14.3 13.1,14.3 7.1,0 13.1,-6.4 13.1,-14.3 -0.1,-8 -6.1,-14.5 -13.1,-14.5 z"
           id="path24" /><path
           style="fill:#575756"
           inkscape:connector-curvature="0"
           class="st1"
           d="m 423.4,534.5 c -9,1.1 -15.2,-4.3 -15.2,-14.1 v -32.8 h 6.3 v 8.3 h 8.8 v 6.1 h -8.8 v 18.5 c 0,6.8 4.1,8.6 8.9,8.3 z"
           id="path26" /><path
           style="fill:#575756"
           inkscape:connector-curvature="0"
           class="st1"
           d="m 430.6,490 v -4.8 c 0,-1.7 1.4,-3.1 3.2,-3.1 1.8,0 3.2,1.4 3.2,3.1 v 4.8 z m 6.4,44.5 h -6.4 v -38.7 h 6.4 z"
           id="path28" /><path
           style="fill:#575756"
           inkscape:connector-curvature="0"
           class="st1"
           d="m 484.1,515.3 c 0,11.1 -8.4,20.2 -19.4,20.2 -11,0 -19.4,-9.1 -19.4,-20.2 0,-11.3 8.5,-20.4 19.4,-20.4 11,0 19.4,9.1 19.4,20.4 z m -6.4,0 c 0,-7.9 -5.9,-14.3 -13.1,-14.3 -7.1,0 -13,6.5 -13,14.3 0,7.7 5.9,14 13,14 7.2,0 13.1,-6.3 13.1,-14 z"
           id="path30" /><path
           style="fill:#575756"
           inkscape:connector-curvature="0"
           class="st1"
           d="m 498,534.5 h -6.3 V 511 c 0,-9.8 6.9,-16.1 16.1,-16.1 9.2,0 16.1,6.4 16.1,16.1 v 23.5 h -6.3 v -23.7 c 0,-5.8 -3.8,-10 -9.8,-10 -6,0 -9.8,4.2 -9.8,10 z"
           id="path32" /><path
           style="fill:#575756"
           inkscape:connector-curvature="0"
           class="st1"
           d="m 557.6,502.1 c -3,-0.1 -5.7,0.3 -7.7,2.2 -1.7,1.7 -2.9,4.2 -2.9,10.9 0,7.7 -1.4,12.1 -4.8,15.4 -3,2.9 -7.4,4.3 -12.2,4 v -6.3 c 3.4,0.2 6.2,-0.8 7.8,-2.3 1.6,-1.5 2.9,-4.1 2.9,-10.7 0,-7.7 1.4,-12.2 4.8,-15.5 2.9,-2.8 7.1,-4.1 12.2,-3.8 v 6.1 z"
           id="path34" /></g></g></g><g
     id="g44"
     transform="translate(-36.4,-290.6)"><path
       style="fill:#56bed5"
       inkscape:connector-curvature="0"
       class="st0"
       d="m 416.8,347.7 c -3.2,0 -9,1.1 -10.2,1.3 -4.1,-17.8 -20,-31.1 -39.1,-31.1 -6.6,0 -12.9,1.6 -18.4,4.5 -0.4,-0.9 -13.9,-31.8 -53.5,-31.8 -37.7,0 -51.6,28 -53.1,31.3 -5.3,-2.5 -11.1,-3.9 -17.4,-3.9 -19,0 -35,13.3 -39.1,31.1 l -0.3,0.1 c 0,0 -6.9,-1.4 -10.5,-1.4 -22.3,0 -40.4,18.1 -40.4,40.4 0,16.7 10.2,31.1 24.7,37.2 5.1,2.3 10.7,3.6 16.6,3.6 21.1,0.7 42.4,-26.3 42.4,-26.3 32,-42.2 53,-59.5 82.7,-66.2 28.9,-6.5 53,6.9 53,25.4 0,8.5 -5.9,18.5 -17.5,18.5 -3.9,0 -10.7,-3.1 -12.2,-9.3 1.3,1 2.9,1.7 4.7,1.7 4.1,0 7.4,-3.3 7.4,-7.4 0,-2.9 -1.9,-7.5 -7.8,-7.5 -13.7,0 -25.8,23.8 -16,46.8 0,0 0,0 0,0 v 0 c 6.2,14.6 20.8,24.9 37.7,24.9 20.1,0 44.1,-1.1 66.2,-1.1 22.1,0 40.4,-18.1 40.4,-40.4 0,-22.3 -18,-40.4 -40.3,-40.4 z"
       id="path42" /></g></svg>