<?xml version="1.0" encoding="UTF-8" standalone="no"?>
<!-- Generator: Adobe Illustrator 19.0.0, SVG Export Plug-In . SVG Version: 6.00 Build 0)  -->

<svg
   xmlns:dc="http://purl.org/dc/elements/1.1/"
   xmlns:cc="http://creativecommons.org/ns#"
   xmlns:rdf="http://www.w3.org/1999/02/22-rdf-syntax-ns#"
   xmlns:svg="http://www.w3.org/2000/svg"
   xmlns="http://www.w3.org/2000/svg"
   xmlns:sodipodi="http://sodipodi.sourceforge.net/DTD/sodipodi-0.dtd"
   xmlns:inkscape="http://www.inkscape.org/namespaces/inkscape"
   version="1.1"
   id="Layer_1"
   x="0px"
   y="0px"
   viewBox="0 0 39.405866 36.799998"
   xml:space="preserve"
   sodipodi:docname="contact-info-icon-3.svg"
   width="39.405865"
   height="36.799999"
   inkscape:version="0.92.0 r15299"><metadata
     id="metadata21"><rdf:RDF><cc:Work
         rdf:about=""><dc:format>image/svg+xml</dc:format><dc:type
           rdf:resource="http://purl.org/dc/dcmitype/StillImage" /><dc:title></dc:title></cc:Work></rdf:RDF></metadata><defs
     id="defs19" /><sodipodi:namedview
     pagecolor="#ffffff"
     bordercolor="#666666"
     borderopacity="1"
     objecttolerance="10"
     gridtolerance="10"
     guidetolerance="10"
     inkscape:pageopacity="0"
     inkscape:pageshadow="2"
     inkscape:window-width="1920"
     inkscape:window-height="1017"
     id="namedview17"
     showgrid="false"
     inkscape:zoom="12.685759"
     inkscape:cx="33.308513"
     inkscape:cy="17.811028"
     inkscape:window-x="-8"
     inkscape:window-y="-8"
     inkscape:window-maximized="1"
     inkscape:current-layer="Layer_1" /><style
     type="text/css"
     id="style2">
	.st0{fill:#4FC3F7;}
	.st1{fill:#263238;}
	.st2{fill:#FFC35C;}
</style><path
     class="st0"
     d="m 37.505864,29.7 -7.2,-10.2 c -0.5,-0.6 -1.2,-1 -2,-1 h -4.3 v -3.7 c 0,-0.7 -0.6,-1.2 -1.2,-1.2 -0.7,0 -1.2,0.6 -1.2,1.2 v 3.7 h -2 -1.9 v -3.7 c 0,-0.7 -0.6,-1.2 -1.2,-1.2 -0.7,0 -1.2,0.6 -1.2,1.2 v 3.7 h -4.4 c -0.8,0 -1.5000002,0.4 -2.0000002,1 l -7.2,10.2 c -0.3,0.4 -0.4,0.9 -0.4,1.4 v 3.3 c 0,1.4 1.1,2.4 2.4,2.4 h 15.9000002 15.9 c 1.4,0 2.5,-1.1 2.5,-2.4 v -3.3 c 0,-0.5 -0.2,-1 -0.5,-1.4 z"
     id="path4"
     inkscape:connector-curvature="0"
     style="fill:#4fc3f7" /><path
     class="st1"
     d="m 35.505864,34.4 h -15.9 -15.9000002 c -1.4,0 -2.4,-1.1 -2.4,-2.5 v 2.5 c 0,1.4 1.1,2.4 2.4,2.4 h 15.9000002 15.9 c 1.4,0 2.5,-1.1 2.5,-2.4 v -2.5 c 0,1.4 -1.1,2.5 -2.5,2.5 z"
     id="path6"
     inkscape:connector-curvature="0"
     style="fill:#263238" /><path
     class="st0"
     d="m 39.205864,10.1 c 0,0 0.9,-10.1 -19.6,-10.1 V 0 0 C -0.89413622,0 0.00586378,10.1 0.00586378,10.1 v 2.3 c 0,0.6 0.6,1.1 1.40000002,1.1 h 5.4 c 0.7,0 1.4,-0.5 1.4,-1.1 V 10.1 8.2 c 0,0 4.6000002,-1.5 11.5000002,-1.5 6.9,0 11.5,1.5 11.5,1.5 v 1.9 2.3 c 0,0.6 0.6,1.1 1.4,1.1 h 5.4 c 0.8,0 1.4,-0.5 1.4,-1.1 v -2.3 z"
     id="path8"
     inkscape:connector-curvature="0"
     style="fill:#4fc3f7" /><path
     class="st1"
     d="m 32.305864,6.8 c 0,0 -5.9,-1.5 -12.7,-1.5 -6.8,0 -12.7000002,1.5 -12.7000002,1.5 l 1.2,1.2 c 0,0 4.6000002,-1.5 11.5000002,-1.5 6.9,0 11.5,1.5 11.5,1.5 z"
     id="path10"
     inkscape:connector-curvature="0"
     style="fill:#263238" /><path
     class="st2"
     d="m 25.705864,25.1 c 0,1.7 -2.7,3.1 -6.1,3.1 -3.4,0 -6.1,-1.4 -6.1,-3.1 0,-1.7 2.8,-3.1 6.1,-3.1 3.4,0.1 6.1,1.5 6.1,3.1 z"
     id="path12"
     inkscape:connector-curvature="0"
     style="fill:#ffc35c" /><path
     class="st1"
     d="m 19.605864,23.3 c 3,0 5.4,1 6,2.5 0.1,-0.2 0.1,-0.4 0.1,-0.6 0,-1.7 -2.7,-3.1 -6.1,-3.1 -3.4,0 -6.1,1.4 -6.1,3.1 0,0.2 0,0.4 0.1,0.6 0.6,-1.4 3,-2.5 6,-2.5 z"
     id="path14"
     inkscape:connector-curvature="0"
     style="fill:#263238" /></svg>