<?xml version="1.0" encoding="UTF-8" standalone="no"?>
<!-- Generator: Adobe Illustrator 19.0.0, SVG Export Plug-In . SVG Version: 6.00 Build 0)  -->

<svg
   xmlns:dc="http://purl.org/dc/elements/1.1/"
   xmlns:cc="http://creativecommons.org/ns#"
   xmlns:rdf="http://www.w3.org/1999/02/22-rdf-syntax-ns#"
   xmlns:svg="http://www.w3.org/2000/svg"
   xmlns="http://www.w3.org/2000/svg"
   xmlns:sodipodi="http://sodipodi.sourceforge.net/DTD/sodipodi-0.dtd"
   xmlns:inkscape="http://www.inkscape.org/namespaces/inkscape"
   version="1.1"
   id="Layer_1"
   x="0px"
   y="0px"
   viewBox="0 0 435.9 453.99999"
   xml:space="preserve"
   sodipodi:docname="contact-header.svg"
   width="435.89999"
   height="454"
   inkscape:version="0.92.0 r15299"><metadata
     id="metadata251"><rdf:RDF><cc:Work
         rdf:about=""><dc:format>image/svg+xml</dc:format><dc:type
           rdf:resource="http://purl.org/dc/dcmitype/StillImage" /><dc:title></dc:title></cc:Work></rdf:RDF></metadata><defs
     id="defs249" /><sodipodi:namedview
     pagecolor="#ffffff"
     bordercolor="#666666"
     borderopacity="1"
     objecttolerance="10"
     gridtolerance="10"
     guidetolerance="10"
     inkscape:pageopacity="0"
     inkscape:pageshadow="2"
     inkscape:window-width="1920"
     inkscape:window-height="1017"
     id="namedview247"
     showgrid="false"
     inkscape:zoom="0.56063664"
     inkscape:cx="398.34488"
     inkscape:cy="217.89016"
     inkscape:window-x="-8"
     inkscape:window-y="-8"
     inkscape:window-maximized="1"
     inkscape:current-layer="Layer_1" /><style
     type="text/css"
     id="style2">
	.st0{fill-rule:evenodd;clip-rule:evenodd;fill:#FFFFFF;}
	.st1{fill:#FFFFFF;}
	.st2{fill:#538F82;}
	.st3{fill:none;}
	.st4{fill:#32BFD3;}
	.st5{fill:#00BFD3;}
	.st6{fill:#3E3E3E;stroke:#FFFFFF;stroke-width:0.8;stroke-linecap:round;stroke-linejoin:round;stroke-miterlimit:10;}
	.st7{fill:#FFC35C;}
	.st8{fill:#3E3E3E;}
	.st9{fill:#D7D2CB;}
	.st10{fill-rule:evenodd;clip-rule:evenodd;fill:#3E3E3E;}
</style><g
     id="g244"
     transform="translate(-80,-193.99999)"><g
       id="g10"><path
         class="st0"
         d="M 199.8,407.5 H 83 v -19.1 h 12 v 9 h 15.8 v -9 H 172 v 9 h 15.8 v -9 h 12 z m 0,86.8 H 83 V 410.5 H 199.8 Z M 98,377.8 h 9.8 v 16.7 H 98 Z m 77,0 h 9.8 v 16.7 H 175 Z m 12.8,7.7 V 374.9 H 172 v 10.6 H 110.7 V 374.9 H 95 v 10.6 H 80 V 497.3 H 202.7 V 385.5 Z"
         id="path4"
         inkscape:connector-curvature="0"
         style="clip-rule:evenodd;fill:#ffffff;fill-rule:evenodd" /><path
         class="st0"
         d="M 136.1,479.6 H 102.7 V 477 l 5.6,-5.4 c 14.6,-13.9 21.5,-21.5 21.6,-30.8 0,-8 -4.7,-12.6 -12.8,-12.6 -4.8,0 -8.8,2.1 -11.5,4 l -1.2,-2.7 c 4,-3 9.1,-4.7 14.3,-4.7 11.8,0 15.9,8.1 15.9,15 0,10.2 -7.9,18.7 -19.1,29.4 l -5,4.6 v 2.3 h 25.6 z m 3,-6.4 h -23.4 l 2,-1.8 c 11.7,-11.3 20.1,-20.2 20.1,-31.6 0,-9 -5.8,-18 -18.9,-18 -6.3,0 -12.4,2.2 -17.1,6.1 l -0.9,0.7 3.7,8.2 1.5,-1.3 c 2.5,-2 6.4,-4.5 11.1,-4.5 6.5,0 9.8,3.2 9.8,9.6 -0.1,7.8 -6.2,14.8 -20.7,28.7 l -6.5,6.3 v 6.8 h 39.3 z"
         id="path6"
         inkscape:connector-curvature="0"
         style="clip-rule:evenodd;fill:#ffffff;fill-rule:evenodd" /><path
         class="st0"
         d="M 175,464.8 C 174.9,455.3 166.2,452 158.8,452 H 156 v -2.8 h 2.8 c 7,0 14.2,-3.8 14.2,-11.1 0,-4.9 -3,-10 -11.5,-10 -4.7,0 -8.7,1.9 -10.6,3 l -1,-2.8 c 2.7,-1.6 7.6,-3.5 13.1,-3.5 10.9,0 14.8,6.5 14.8,12.1 0,5.5 -3.4,9.8 -9.5,12 l -1,0.4 v 2.4 l 1.2,0.2 c 7,1.4 11.5,6.6 11.5,13.2 0,7.8 -6,15.6 -19.3,15.6 -5.5,0 -10.3,-1.6 -13,-3 l 1.1,-3.1 c 1.9,0.9 6.5,2.9 11.8,2.9 4.7,0 8.4,-1.3 11,-4 2.2,-2.4 3.4,-5.5 3.4,-8.7 z m -14.4,9.5 c -5.2,0 -10,-2.2 -11.8,-3.4 l -1.6,-1 -3.1,8.8 1,0.6 c 2.9,1.9 8.7,4.1 15.6,4.1 15.4,0 22.2,-9.3 22.2,-18.5 0,-6.7 -3.9,-12.4 -10.2,-15 5.2,-3 8,-7.6 8,-13.2 0,-7.5 -5.5,-15 -17.8,-15 -6.5,0 -12.6,2.3 -15.8,4.7 l -0.9,0.7 3.1,8.5 1.6,-1.1 c 2.3,-1.6 6.4,-3.5 10.5,-3.5 7.4,0 8.5,4.4 8.5,7.1 0,6 -6.7,8.1 -11.2,8.1 H 153 v 8.7 h 5.8 c 6,0 13.1,2.6 13.2,9.9 0,2.4 -0.9,4.8 -2.5,6.5 -2,2 -5,3 -8.9,3 z"
         id="path8"
         inkscape:connector-curvature="0"
         style="clip-rule:evenodd;fill:#ffffff;fill-rule:evenodd" /></g><g
       id="g14"><path
         class="st0"
         d="m 513.5,429.3 c -0.4,5.6 -1.8,10.9 -4.1,15.8 l -0.6,1.2 h -16.1 l 0.6,-2.6 c 1,-4.5 1.7,-9.4 1.9,-14.6 l 0.1,-2.1 h 18.3 z m -8.2,22.5 c -4.5,6.4 -10.6,11.6 -17.7,14.9 l -7.6,3.6 4.9,-6.8 c 2.7,-3.6 4.9,-8.2 6.7,-13.6 l 0.5,-1.5 h 15.6 z m -35.9,19.5 v -22.9 h 20.4 l -1.1,2.9 c -3.9,10.4 -9.8,17.2 -16.6,19.2 z m 0,-44.3 h 23.5 l -0.1,2.2 c -0.2,5.7 -0.9,10.8 -2.1,15.4 l -0.4,1.6 h -20.9 z m 0,-21.5 h 20.9 l 0.4,1.6 c 1.2,4.6 1.9,9.8 2.1,15.4 l 0.1,2.2 h -23.5 z m 0,-25 2.8,0.8 c 6.7,2 12.6,8.8 16.6,19.2 l 1.1,2.9 h -20.4 v -22.9 z m 18.2,4.6 c 7.2,3.4 13.2,8.4 17.7,14.9 l 2.4,3.4 h -15.6 l -0.5,-1.5 c -1.8,-5.4 -4,-10 -6.7,-13.6 l -5,-6.8 z m 21.8,21.7 c 2.3,4.8 3.6,10.1 4.1,15.8 l 0.2,2.3 h -18.3 l -0.1,-2.1 c -0.2,-5.2 -0.8,-10.1 -1.9,-14.6 l -0.6,-2.6 h 16.1 z m -42.2,-3.4 h -20.4 l 1.1,-2.9 c 3.9,-10.4 9.8,-17.2 16.5,-19.2 l 2.8,-0.8 z m 0,21.4 h -23.5 l 0.1,-2.2 c 0.3,-5.8 1,-10.8 2.1,-15.4 l 0.4,-1.6 h 20.9 z m 0,21.5 h -20.9 l -0.4,-1.6 c -1.2,-4.6 -1.9,-9.7 -2.1,-15.4 l -0.1,-2.2 h 23.5 z m 0,25 -2.8,-0.8 c -6.7,-2 -12.6,-8.8 -16.5,-19.2 l -1.1,-2.9 h 20.4 z M 449,466.7 c -7.2,-3.4 -13.1,-8.4 -17.7,-14.9 l -2.4,-3.4 h 15.5 l 0.5,1.5 c 1.8,5.4 4,9.9 6.7,13.6 l 4.9,6.8 z M 427.1,445 c -2.3,-4.9 -3.6,-10.2 -4,-15.8 l -0.2,-2.3 h 18.4 l 0.1,2.1 c 0.2,5 0.8,9.9 1.9,14.6 l 0.6,2.6 h -16.1 z m -4,-22.5 c 0.4,-5.6 1.8,-10.9 4,-15.8 l 0.6,-1.2 h 16.1 l -0.6,2.6 c -1.1,4.7 -1.7,9.6 -1.9,14.6 l -0.1,2.1 h -18.4 z m 8.2,-22.5 c 4.6,-6.5 10.5,-11.5 17.7,-14.9 l 7.6,-3.6 -4.9,6.8 c -2.7,3.7 -4.9,8.2 -6.7,13.6 l -0.5,1.5 H 429 Z m 84.5,22.8 c -0.3,-5 -1.4,-9.9 -3.2,-14.3 l -1.2,-3 v 0 l -1.1,-2.2 h -0.1 l -0.6,-1.1 c -8,-13.9 -22.3,-22.8 -38.3,-23.9 l -2,-0.1 v -0.1 h -2.1 v 0.1 l -2,0.1 c -16,1 -30.3,10 -38.3,23.9 l -0.6,1.1 h -0.1 l -1.3,2.5 -1,2.6 c -1.8,4.5 -2.9,9.3 -3.2,14.4 l -0.1,2 h -0.1 v 2.1 h 0.1 l 0.1,2 c 0.3,5 1.4,9.9 3.2,14.4 l 1,2.6 1.3,2.5 h 0.1 l 0.6,1.1 c 8,13.9 22.3,22.9 38.3,23.9 l 2,0.1 v 0.1 h 2.1 v -0.1 l 2,-0.1 c 16,-1 30.3,-10 38.3,-23.9 l 0.6,-1.1 h 0.1 l 1.1,-2.1 v 0 l 1.2,-3 c 1.8,-4.5 2.9,-9.3 3.2,-14.4 l 0.1,-2 v 0 -2.1 0 z"
         id="path12"
         inkscape:connector-curvature="0"
         style="clip-rule:evenodd;fill:#ffffff;fill-rule:evenodd" /></g><g
       id="g60"><path
         class="st0"
         d="m 366.9,239.3 h 82.2 V 341 h -82.2 z m -2.5,104.2 h 87.2 V 236.8 h -87.2 z"
         id="path16"
         inkscape:connector-curvature="0"
         style="clip-rule:evenodd;fill:#ffffff;fill-rule:evenodd" /><rect
         x="373.60001"
         y="250.10001"
         class="st1"
         width="68.800003"
         height="2.5"
         id="rect18"
         style="fill:#ffffff" /><rect
         x="373.60001"
         y="328.5"
         class="st2"
         width="68.800003"
         height="2.5"
         id="rect20"
         style="fill:#538f82" /><rect
         x="373.60001"
         y="258.79999"
         class="st1"
         width="68.800003"
         height="2.5"
         id="rect22"
         style="fill:#ffffff" /><rect
         x="373.60001"
         y="267.5"
         class="st1"
         width="68.800003"
         height="2.5"
         id="rect24"
         style="fill:#ffffff" /><rect
         x="373.60001"
         y="302.39999"
         class="st2"
         width="68.800003"
         height="2.5"
         id="rect26"
         style="fill:#538f82" /><rect
         x="373.60001"
         y="311.10001"
         class="st2"
         width="68.800003"
         height="2.5"
         id="rect28"
         style="fill:#538f82" /><rect
         x="373.60001"
         y="319.79999"
         class="st2"
         width="68.800003"
         height="2.5"
         id="rect30"
         style="fill:#538f82" /><rect
         x="373.60001"
         y="276.29999"
         class="st1"
         width="68.800003"
         height="2.5"
         id="rect32"
         style="fill:#ffffff" /><rect
         x="373.60001"
         y="285"
         class="st1"
         width="68.800003"
         height="2.5"
         id="rect34"
         style="fill:#ffffff" /><rect
         x="373.60001"
         y="293.70001"
         class="st2"
         width="68.800003"
         height="2.5"
         id="rect36"
         style="fill:#538f82" /><polygon
         class="st1"
         points="398.5,235.6 398.5,221.6 480.7,221.6 480.7,323.3 453,323.3 453,325.8 483.2,325.8 483.2,219.1 396,219.1 396,235.6 "
         id="polygon38"
         style="fill:#ffffff" /><rect
         x="405.20001"
         y="232.5"
         class="st1"
         width="68.800003"
         height="2.5"
         id="rect40"
         style="fill:#ffffff" /><rect
         x="453"
         y="310.79999"
         class="st1"
         width="20.9"
         height="2.5"
         id="rect42"
         style="fill:#ffffff" /><rect
         x="453"
         y="241.2"
         class="st1"
         width="20.9"
         height="2.5"
         id="rect44"
         style="fill:#ffffff" /><rect
         x="453"
         y="249.89999"
         class="st1"
         width="20.9"
         height="2.5"
         id="rect46"
         style="fill:#ffffff" /><rect
         x="453"
         y="284.70001"
         class="st1"
         width="20.9"
         height="2.5"
         id="rect48"
         style="fill:#ffffff" /><rect
         x="453"
         y="293.39999"
         class="st1"
         width="20.9"
         height="2.5"
         id="rect50"
         style="fill:#ffffff" /><rect
         x="453"
         y="302.10001"
         class="st1"
         width="20.9"
         height="2.5"
         id="rect52"
         style="fill:#ffffff" /><rect
         x="453"
         y="258.60001"
         class="st1"
         width="20.9"
         height="2.5"
         id="rect54"
         style="fill:#ffffff" /><rect
         x="453"
         y="267.29999"
         class="st1"
         width="20.9"
         height="2.5"
         id="rect56"
         style="fill:#ffffff" /><rect
         x="453"
         y="276"
         class="st1"
         width="20.9"
         height="2.5"
         id="rect58"
         style="fill:#ffffff" /></g><g
       id="g78"><path
         class="st3"
         d="m 263.1,279.4 c -5.2,3.1 -6.8,9.8 -3.7,14.9 3.1,5.1 9.8,6.8 14.9,3.7 5.1,-3.1 6.8,-9.8 3.7,-14.9 -3,-5.1 -9.7,-6.8 -14.9,-3.7 z"
         id="path62"
         inkscape:connector-curvature="0"
         style="fill:none" /><path
         class="st3"
         d="m 179.9,346.1 c -4.6,2.7 -6,8.6 -3.3,13.2 2.7,4.6 8.7,6 13.2,3.3 4.6,-2.7 6.1,-8.7 3.3,-13.2 -2.7,-4.5 -8.6,-6 -13.2,-3.3 z"
         id="path64"
         inkscape:connector-curvature="0"
         style="fill:none" /><g
         id="g68"><path
           class="st0"
           d="m 189.8,362.6 c -4.6,2.7 -10.5,1.3 -13.2,-3.3 -2.7,-4.6 -1.2,-10.5 3.3,-13.2 4.6,-2.7 10.5,-1.3 13.2,3.3 2.8,4.6 1.3,10.5 -3.3,13.2 z m -16,-26.7 c -10.2,6.1 -13.5,19.4 -7.4,29.6 6.1,10.2 19.4,13.5 29.6,7.4 10.2,-6.1 13.5,-19.4 7.4,-29.6 -6.1,-10.2 -19.4,-13.5 -29.6,-7.4 z"
           id="path66"
           inkscape:connector-curvature="0"
           style="clip-rule:evenodd;fill:#ffffff;fill-rule:evenodd" /></g><g
         id="g72"><path
           class="st0"
           d="m 197.1,374.7 c -11.2,6.7 -25.8,3 -32.6,-8.2 -6.8,-11.2 -3.1,-25.8 8.2,-32.5 11.2,-6.7 25.8,-3.1 32.6,8.2 6.8,11.3 3,25.8 -8.2,32.5 z m 28.7,-21.5 -3.6,-15.6 -9,2.1 c -0.3,-0.6 -0.6,-1.1 -0.9,-1.7 -0.3,-0.6 -0.7,-1.1 -1,-1.6 l 6,-6.9 -12.1,-10.6 -6,6.9 c -1.1,-0.6 -2.3,-1.1 -3.6,-1.5 l 0.8,-9.1 -16,-1.4 -0.8,9.1 c -1.3,0.2 -2.5,0.5 -3.8,0.9 l -4.7,-7.9 -13.8,8.2 4.7,7.9 c -0.9,0.9 -1.8,1.9 -2.5,2.9 l -8.4,-3.6 -6.3,14.8 8.4,3.6 c -0.2,1.3 -0.3,2.6 -0.3,3.9 l -9,2 3.6,15.6 9,-2.1 c 0.3,0.6 0.6,1.1 0.9,1.7 0.3,0.6 0.7,1.1 1,1.6 l -6,6.9 12.1,10.6 6,-6.9 c 1.2,0.6 2.3,1.1 3.6,1.5 l -0.8,9.1 16,1.4 0.8,-9.1 c 1.3,-0.2 2.5,-0.5 3.8,-0.9 l 4.7,7.9 13.8,-8.2 -4.7,-7.9 c 0.9,-0.9 1.8,-1.9 2.5,-2.9 l 8.4,3.6 6.3,-14.8 -8.4,-3.6 c 0.2,-1.3 0.3,-2.6 0.3,-3.8 z"
           id="path70"
           inkscape:connector-curvature="0"
           style="clip-rule:evenodd;fill:#ffffff;fill-rule:evenodd" /></g><path
         class="st0"
         d="m 282.5,311.7 c -12.7,7.6 -29.2,3.5 -36.7,-9.2 -7.5,-12.7 -3.4,-29.1 9.2,-36.7 12.7,-7.6 29.1,-3.4 36.7,9.2 7.6,12.6 3.4,29.1 -9.2,36.7 z m 22.3,-21.9 10.1,-2.3 -4,-17.6 -10.1,2.3 c -0.3,-0.6 -0.7,-1.3 -1.1,-1.9 -0.4,-0.6 -0.8,-1.2 -1.2,-1.8 l 6.8,-7.8 -13.6,-11.9 -6.8,7.8 c -1.3,-0.7 -2.6,-1.2 -4,-1.7 l 0.9,-10.3 -18,-1.6 -0.9,10.3 c -1.4,0.2 -2.8,0.6 -4.3,1 l -5.3,-8.9 -15.6,9.3 5.3,8.9 c -1,1 -2,2.1 -2.9,3.3 l -9.5,-4.1 -7.1,16.6 9.5,4.1 c -0.2,1.4 -0.3,2.9 -0.4,4.3 l -10.1,2.3 4.1,17.6 10.1,-2.3 c 0.3,0.6 0.7,1.3 1.1,1.9 0.4,0.6 0.8,1.2 1.2,1.8 l -6.8,7.8 13.6,11.9 6.8,-7.8 c 1.3,0.6 2.6,1.2 4,1.7 l -0.9,10.3 18.1,1.6 0.9,-10.3 c 1.4,-0.2 2.9,-0.6 4.3,-1 l 5.3,8.9 15.5,-9.3 -5.3,-8.9 c 1,-1 2,-2.1 2.9,-3.3 l 9.5,4.1 7.1,-16.7 -9.5,-4.1 c 0.1,-1.4 0.2,-2.8 0.3,-4.2 z"
         id="path74"
         inkscape:connector-curvature="0"
         style="clip-rule:evenodd;fill:#ffffff;fill-rule:evenodd" /><path
         class="st0"
         d="m 274.3,298 c -5.1,3.1 -11.8,1.4 -14.9,-3.7 -3.1,-5.1 -1.4,-11.8 3.7,-14.9 5.1,-3.1 11.8,-1.4 14.9,3.7 3.1,5.2 1.5,11.9 -3.7,14.9 z m -18.1,-30.2 c -11.5,6.9 -15.3,21.9 -8.4,33.4 6.9,11.5 21.9,15.3 33.4,8.4 11.5,-6.9 15.3,-21.9 8.4,-33.4 -6.9,-11.5 -21.9,-15.3 -33.4,-8.4 z"
         id="path76"
         inkscape:connector-curvature="0"
         style="clip-rule:evenodd;fill:#ffffff;fill-rule:evenodd" /></g><g
       id="g96"><g
         id="g82"><path
           class="st4"
           d="m 307.8,324.9 144.7,116.7 c -0.7,0.1 -3.2,12.6 -4,12.6 l -18.8,70.6 -241.6,-4.5 -20.2,-70.6 c -0.7,0 -3.9,-7.9 -4.7,-8.1 z"
           id="path80"
           inkscape:connector-curvature="0"
           style="fill:#32bfd3" /></g><g
         id="g86"><rect
           x="190.3"
           y="383.10001"
           class="st5"
           width="230.8"
           height="130.8"
           id="rect84"
           style="fill:#00bfd3" /></g><path
         class="st0"
         d="m 212.7,479.8 h 189.9 c 7.6,0 13.7,4.9 13.7,10.8 0,6 -6.1,10.8 -13.7,10.8 H 212.7 c -7.6,0 -13.7,-4.8 -13.7,-10.8 0,-5.9 6.2,-10.8 13.7,-10.8 z m 0,-31.4 h 189.9 c 7.6,0 13.7,4.8 13.7,10.8 0,6 -6.1,10.8 -13.7,10.8 H 212.7 c -7.6,0 -13.7,-4.9 -13.7,-10.8 0,-6 6.2,-10.8 13.7,-10.8 z m 0,-31.4 h 189.9 c 7.6,0 13.7,4.9 13.7,10.8 0,5.9 -6.1,10.8 -13.7,10.8 H 212.7 c -7.6,0 -13.7,-4.9 -13.7,-10.8 0,-5.9 6.2,-10.8 13.7,-10.8 z m 0,-31.5 h 189.9 c 7.6,0 13.7,4.9 13.7,10.8 0,6 -6.1,10.8 -13.7,10.8 H 212.7 c -7.6,0 -13.7,-4.9 -13.7,-10.8 0,-5.9 6.2,-10.8 13.7,-10.8 z m 227.1,139.2 h -5.6 V 380.8 c 0,-4.2 -4.3,-7.5 -9.5,-7.5 h -234 c -5.2,0 -9.5,3.4 -9.5,7.5 V 524.7 H 175 c -6.9,0 -12.5,5.6 -12.5,12.5 V 614 c 0,6.9 5.6,12.5 12.5,12.5 h 264.8 c 6.9,0 12.5,-5.6 12.5,-12.5 v -76.8 c 0,-6.9 -5.6,-12.5 -12.5,-12.5 z"
         id="path88"
         inkscape:connector-curvature="0"
         style="clip-rule:evenodd;fill:#ffffff;fill-rule:evenodd" /><path
         class="st4"
         d="m 347.1,529.3 -35.4,29.5 c -1.1,0.9 -2.5,1.4 -3.9,1.4 -1.4,0 -2.7,-0.5 -3.9,-1.4 l -35.4,-29.5 -96.9,96.9 c 1,0.3 1.9,0.6 2.9,0.6 H 441 c 1.1,0 2,-0.3 3,-0.6 z"
         id="path90"
         inkscape:connector-curvature="0"
         style="fill:#32bfd3" /><path
         class="st4"
         d="m 453.2,445.2 c 0,-1.3 -0.4,-2.4 -0.7,-3.6 l -96,80 96.1,96.1 c 0.2,-1 0.6,-1.9 0.6,-3 z"
         id="path92"
         inkscape:connector-curvature="0"
         style="fill:#32bfd3" /><path
         class="st4"
         d="m 163.2,441.5 c -0.4,1.2 -0.8,2.3 -0.8,3.6 v 169.5 c 0,1.1 0.4,2 0.6,3 l 96.2,-96.1 z"
         id="path94"
         inkscape:connector-curvature="0"
         style="fill:#32bfd3" /></g><polygon
       class="st1"
       points="424.9,648 438.8,613.6 467.2,641.5 475.1,633.5 483.1,624.9 454.5,597.8 486.7,582.2 393.7,557.1 "
       id="polygon98"
       style="fill:#ffffff" /><g
       id="g102"><path
         class="st6"
         d="m 458.1,335.7 c 0,38.8 -31.4,70.2 -70.2,70.2 -38.8,0 -70.2,-31.4 -70.2,-70.2 0,-38.8 31.5,-70.2 70.2,-70.2 38.7,0 70.2,31.5 70.2,70.2 z"
         id="path100"
         inkscape:connector-curvature="0"
         style="fill:#3e3e3e;stroke:#ffffff;stroke-width:0.80000001;stroke-linecap:round;stroke-linejoin:round;stroke-miterlimit:10" /></g><g
       id="g106"><path
         class="st6"
         d="m 270.4,299 c 0,29.5 -23.9,53.4 -53.5,53.4 -29.6,0 -53.5,-23.9 -53.5,-53.4 0,-29.5 23.9,-53.4 53.5,-53.4 29.6,0 53.5,23.9 53.5,53.4 z"
         id="path104"
         inkscape:connector-curvature="0"
         style="fill:#3e3e3e;stroke:#ffffff;stroke-width:0.80000001;stroke-linecap:round;stroke-linejoin:round;stroke-miterlimit:10" /></g><g
       id="g126"><g
         id="g110"><path
           class="st7"
           d="m 419.9,342.5 c 4.8,0 8.7,-3.9 8.7,-8.7 0,-4.8 -3.9,-8.7 -8.7,-8.7 h -4.2 v 17.5 h 4.2 z"
           id="path108"
           inkscape:connector-curvature="0"
           style="fill:#ffc35c" /></g><path
         class="st8"
         d="m 420.9,371.9 c 0,1.4 -1.1,2.5 -2.5,2.5 -1.4,0 -2.5,-1.1 -2.5,-2.5 v -76.3 c 0,-1.4 1.1,-2.5 2.5,-2.5 1.4,0 2.5,1.1 2.5,2.5 z"
         id="path112"
         inkscape:connector-curvature="0"
         style="fill:#3e3e3e" /><path
         class="st7"
         d="m 362.8,318 c -8.7,0 -15.7,7 -15.7,15.7 0,8.7 7,15.7 15.7,15.7 h 0.1 z"
         id="path114"
         inkscape:connector-curvature="0"
         style="fill:#ffc35c" /><g
         id="g118"><path
           class="st1"
           d="m 363.6,349.5 c 0,0 6.5,28.1 10.9,28.8 4.3,0.7 6,-2.2 4.8,-5.8 -1.3,-3.7 -3.5,-24.2 -3,-26.5 0.4,-2.4 -13.3,3.6 -13.3,3.6"
           id="path116"
           inkscape:connector-curvature="0"
           style="fill:#ffffff" /></g><g
         id="g122"><path
           class="st1"
           d="m 369.7,318 h -6.1 v 31.5 h 6.1 c 0,0 31.7,-5.3 47.3,24.7 V 334 333.4 293.3 c -15.7,30 -47.3,24.7 -47.3,24.7 z"
           id="path120"
           inkscape:connector-curvature="0"
           style="fill:#ffffff" /></g><path
         class="st8"
         d="m 366.5,323.2 c 0,0 31.8,5.4 47.7,-18.1 0,0 -5,21.4 -47.3,22 z"
         id="path124"
         inkscape:connector-curvature="0"
         style="fill:#3e3e3e" /></g><g
       id="g194"><g
         id="g130"><circle
           class="st6"
           cx="328.89999"
           cy="227.89999"
           id="ellipse128"
           r="33.5"
           style="fill:#3e3e3e;stroke:#ffffff;stroke-width:0.80000001;stroke-linecap:round;stroke-linejoin:round;stroke-miterlimit:10" /></g><g
         id="g192"><rect
           x="311"
           y="226.60001"
           class="st1"
           width="35.900002"
           height="0.30000001"
           id="rect132"
           style="fill:#ffffff" /><g
           id="g170"><rect
             x="330.39999"
             y="228.7"
             class="st1"
             width="16.5"
             height="4.0999999"
             id="rect134"
             style="fill:#ffffff" /><rect
             x="311"
             y="235.89999"
             class="st1"
             width="16.5"
             height="15.5"
             id="rect136"
             style="fill:#ffffff" /><rect
             x="311"
             y="228.7"
             class="st1"
             width="16.5"
             height="4.0999999"
             id="rect138"
             style="fill:#ffffff" /><rect
             x="330.39999"
             y="235.89999"
             class="st1"
             width="16.5"
             height="15.5"
             id="rect140"
             style="fill:#ffffff" /><g
             id="g144"><polygon
               class="st9"
               points="327.4,228.7 327.4,227.4 330.4,227.4 330.4,228.7 346.9,228.7 346.9,226.9 311,226.9 311,228.7 "
               id="polygon142"
               style="fill:#d7d2cb" /></g><g
             id="g148"><rect
               x="327.39999"
               y="235.89999"
               class="st8"
               width="3"
               height="15.5"
               id="rect146"
               style="fill:#3e3e3e" /></g><g
             id="g152"><rect
               x="327.20001"
               y="225.60001"
               class="st8"
               width="3.2"
               height="12.8"
               id="rect150"
               style="fill:#3e3e3e" /></g><g
             id="g156"><rect
               x="327.39999"
               y="215.7"
               class="st8"
               width="3"
               height="11.7"
               id="rect154"
               style="fill:#3e3e3e" /></g><g
             id="g160"><rect
               x="311"
               y="232.89999"
               class="st8"
               width="16.5"
               height="3"
               id="rect158"
               style="fill:#3e3e3e" /></g><g
             id="g164"><rect
               x="330.39999"
               y="232.89999"
               class="st8"
               width="16.5"
               height="3"
               id="rect162"
               style="fill:#3e3e3e" /></g><rect
             x="307.10001"
             y="215.7"
             class="st1"
             width="20.299999"
             height="11.7"
             id="rect166"
             style="fill:#ffffff" /><rect
             x="330.39999"
             y="215.7"
             class="st1"
             width="20.299999"
             height="11.7"
             id="rect168"
             style="fill:#ffffff" /></g><g
           id="g174"><polygon
             class="st8"
             points="327.9,213.7 327.4,215.3 319.5,209.5 323.8,204.5 "
             id="polygon172"
             style="fill:#3e3e3e" /></g><g
           id="g178"><path
             class="st7"
             d="m 315,215.9 c 0,0 -0.6,-5.7 1.9,-7.2 2.5,-1.5 11.7,7.2 11.7,7.2 z"
             id="path176"
             inkscape:connector-curvature="0"
             style="fill:#ffc35c" /></g><g
           id="g182"><polygon
             class="st8"
             points="330.1,213.7 330.6,215.3 338.5,209.5 334.1,204.5 "
             id="polygon180"
             style="fill:#3e3e3e" /></g><g
           id="g186"><path
             class="st7"
             d="m 343,215.7 c 0,0 0.5,-5.6 -2,-7.1 -2.5,-1.5 -11.7,7.2 -11.7,7.2 z"
             id="path184"
             inkscape:connector-curvature="0"
             style="fill:#ffc35c" /></g><g
           id="g190"><path
             class="st8"
             d="m 330.7,214.7 c 0,0.7 -0.5,1.2 -1.2,1.2 H 328 c -0.7,0 -1.2,-0.5 -1.2,-1.2 0,-0.7 0.5,-1.2 1.2,-1.2 h 1.5 c 0.6,0 1.2,0.5 1.2,1.2 z"
             id="path188"
             inkscape:connector-curvature="0"
             style="fill:#3e3e3e" /></g></g></g><g
       id="g242"><g
         id="g202"><path
           class="st1"
           d="m 196.1,266.5 v 60.9 c -1.9,-0.2 -3,-0.3 -3,-0.3 l -2.5,9.1 h 52.7 4.4 0.6 c 1.4,0 2.6,-0.9 3,-2.2 h 0.1 v -1 -50.4 -16.2 h -55.3 z"
           id="path196"
           inkscape:connector-curvature="0"
           style="fill:#ffffff" /><g
           id="g200"><path
             class="st10"
             d="m 251.3,266.5 h -55.2 v 60.9 c -1.9,-0.2 -3,-0.3 -3,-0.3 l -2.5,9.1 h 52.7 4.4 0.6 c 1.4,0 2.6,-0.9 3,-2.2 h 0.1 v -1 -50.4 -16.1 z m -0.8,0.7 v 15.5 50.3 0.3 l -0.1,0.3 c -0.3,1 -1.2,1.6 -2.2,1.6 h -0.6 -4.4 -51.7 l 2.1,-7.5 2.4,0.2 0.9,0.1 V 327.1 267 h 53.6 z"
             id="path198"
             inkscape:connector-curvature="0"
             style="clip-rule:evenodd;fill:#3e3e3e;fill-rule:evenodd" /></g></g><g
         id="g210"><path
           class="st1"
           d="m 186.5,266.5 v 16.2 14.1 36.2 c 0,1.7 1.4,3.1 3.1,3.1 h 4.9 c 1.7,0 3.1,-1.4 3.1,-3.1 v -36.2 -14.1 -16.2 z"
           id="path204"
           inkscape:connector-curvature="0"
           style="fill:#ffffff" /><g
           id="g208"><path
             class="st10"
             d="m 197.6,266.5 h -11.1 v 16.2 14.1 36.2 c 0,1.7 1.4,3.1 3.1,3.1 h 4.9 c 1.7,0 3.1,-1.4 3.1,-3.1 v -36.2 -14.1 z m -0.7,0.7 v 15.5 14.1 36.2 c 0,1.3 -1.1,2.3 -2.3,2.3 h -4.9 c -1.3,0 -2.3,-1 -2.3,-2.3 v -36.2 -14.1 -15.5 z"
             id="path206"
             inkscape:connector-curvature="0"
             style="clip-rule:evenodd;fill:#3e3e3e;fill-rule:evenodd" /></g></g><g
         id="g214"><path
           class="st8"
           d="m 194.5,269.5 v 61.3 c 0,0.6 -0.5,1.1 -1.1,1.1 h -2.8 c -0.6,0 -1.1,-0.5 -1.1,-1.1 v -61.3 h -1 v 61.3 c 0,1.1 0.9,2 2,2 h 2.8 c 1.1,0 2,-0.9 2,-2 v -61.3 z"
           id="path212"
           inkscape:connector-curvature="0"
           style="fill:#3e3e3e" /></g><g
         id="g218"><rect
           x="191.60001"
           y="269.5"
           class="st8"
           width="1"
           height="59.599998"
           id="rect216"
           style="fill:#3e3e3e" /></g><rect
         x="200.89999"
         y="288"
         class="st7"
         width="45.299999"
         height="8.3000002"
         id="rect220"
         style="fill:#ffc35c" /><rect
         x="200.89999"
         y="300"
         class="st8"
         width="21.799999"
         height="2.4000001"
         id="rect222"
         style="fill:#3e3e3e" /><rect
         x="224.39999"
         y="300"
         class="st8"
         width="21.799999"
         height="2.4000001"
         id="rect224"
         style="fill:#3e3e3e" /><rect
         x="200.89999"
         y="306.89999"
         class="st8"
         width="21.799999"
         height="2.4000001"
         id="rect226"
         style="fill:#3e3e3e" /><rect
         x="224.39999"
         y="306.89999"
         class="st8"
         width="21.799999"
         height="2.4000001"
         id="rect228"
         style="fill:#3e3e3e" /><rect
         x="200.89999"
         y="313.89999"
         class="st8"
         width="21.799999"
         height="2.4000001"
         id="rect230"
         style="fill:#3e3e3e" /><rect
         x="224.39999"
         y="313.89999"
         class="st8"
         width="21.799999"
         height="2.4000001"
         id="rect232"
         style="fill:#3e3e3e" /><rect
         x="200.89999"
         y="320.89999"
         class="st8"
         width="21.799999"
         height="2.4000001"
         id="rect234"
         style="fill:#3e3e3e" /><rect
         x="224.39999"
         y="320.89999"
         class="st8"
         width="21.799999"
         height="2.4000001"
         id="rect236"
         style="fill:#3e3e3e" /><rect
         x="200.89999"
         y="327.89999"
         class="st8"
         width="21.799999"
         height="2.4000001"
         id="rect238"
         style="fill:#3e3e3e" /><rect
         x="224.39999"
         y="327.89999"
         class="st8"
         width="21.799999"
         height="2.4000001"
         id="rect240"
         style="fill:#3e3e3e" /></g></g></svg>