<?xml version="1.0" encoding="UTF-8" standalone="no"?>
<!-- Generator: Adobe Illustrator 19.0.0, SVG Export Plug-In . SVG Version: 6.00 Build 0)  -->

<svg
   xmlns:dc="http://purl.org/dc/elements/1.1/"
   xmlns:cc="http://creativecommons.org/ns#"
   xmlns:rdf="http://www.w3.org/1999/02/22-rdf-syntax-ns#"
   xmlns:svg="http://www.w3.org/2000/svg"
   xmlns="http://www.w3.org/2000/svg"
   xmlns:sodipodi="http://sodipodi.sourceforge.net/DTD/sodipodi-0.dtd"
   xmlns:inkscape="http://www.inkscape.org/namespaces/inkscape"
   version="1.1"
   id="Layer_1"
   x="0px"
   y="0px"
   viewBox="0 0 45.332471 42.517787"
   xml:space="preserve"
   sodipodi:docname="contact-info-icon-2.svg"
   width="45.33247"
   height="42.517788"
   inkscape:version="0.92.0 r15299"><metadata
     id="metadata21"><rdf:RDF><cc:Work
         rdf:about=""><dc:format>image/svg+xml</dc:format><dc:type
           rdf:resource="http://purl.org/dc/dcmitype/StillImage" /><dc:title></dc:title></cc:Work></rdf:RDF></metadata><defs
     id="defs19" /><sodipodi:namedview
     pagecolor="#ffffff"
     bordercolor="#666666"
     borderopacity="1"
     objecttolerance="10"
     gridtolerance="10"
     guidetolerance="10"
     inkscape:pageopacity="0"
     inkscape:pageshadow="2"
     inkscape:window-width="1920"
     inkscape:window-height="1017"
     id="namedview17"
     showgrid="false"
     inkscape:zoom="4.4850931"
     inkscape:cx="27.591401"
     inkscape:cy="15.908579"
     inkscape:window-x="-8"
     inkscape:window-y="-8"
     inkscape:window-maximized="1"
     inkscape:current-layer="Layer_1" /><style
     type="text/css"
     id="style2">
	.st0{fill:#38C4F7;}
	.st1{fill:#FFBC5F;}
	.st2{fill:#263238;}
	.st3{fill:#FFFFFF;}
</style><path
     class="st0"
     d="m 41.762769,19 h -21.8 c -1.3,0 -2.4,1 -2.4,2.3 v 16.2 c 0,1.3 1.1,2.3 2.4,2.3 h 18.9 l 4.2,2.5 c 1.2,0.7 2.6,-0.4 2.2,-1.7 l -1.1,-3.7 V 21.4 c 0,-1.3 -1.1,-2.4 -2.4,-2.4 z"
     id="path4"
     inkscape:connector-curvature="0"
     style="fill:#38c4f7" /><path
     class="st1"
     d="m 17.662769,21.3 c 0,-1.3 1.1,-2.3 2.4,-2.3 h 15.8 V 3 c 0,-1.6 -1.4,-3 -3,-3 H 4.8627688 c -1.7,0 -3,1.3 -3,3 V 26.7 L 0.06276878,33 c -0.4,1.4 1.20000002,2.4 2.30000002,1.6 l 7.1,-5 h 8.4000002 v -8.3 z"
     id="path6"
     inkscape:connector-curvature="0"
     style="fill:#ffbc5f" /><path
     class="st2"
     d="m 17.662769,21.4 c 0,-1.3 1.1,-2.3 2.4,-2.3 h 15.8 v -3 h -18.8 c -1.3,0 -2.4,1 -2.4,2.3 v 11.4 h 3 z"
     id="path8"
     inkscape:connector-curvature="0"
     style="fill:#263238" /><path
     class="st3"
     d="m 25.862769,29.3 c 0,0.8 -0.7,1.5 -1.5,1.5 -0.8,0 -1.5,-0.7 -1.5,-1.5 0,-0.8 0.7,-1.5 1.5,-1.5 0.8,0 1.5,0.7 1.5,1.5 z"
     id="path10"
     inkscape:connector-curvature="0"
     style="fill:#ffffff" /><path
     class="st3"
     d="m 32.662769,29.3 c 0,0.8 -0.7,1.5 -1.5,1.5 -0.8,0 -1.5,-0.7 -1.5,-1.5 0,-0.8 0.7,-1.5 1.5,-1.5 0.8,0 1.5,0.7 1.5,1.5 z"
     id="path12"
     inkscape:connector-curvature="0"
     style="fill:#ffffff" /><path
     class="st3"
     d="m 39.462769,29.3 c 0,0.8 -0.7,1.5 -1.5,1.5 -0.8,0 -1.5,-0.7 -1.5,-1.5 0,-0.8 0.7,-1.5 1.5,-1.5 0.8,0 1.5,0.7 1.5,1.5 z"
     id="path14"
     inkscape:connector-curvature="0"
     style="fill:#ffffff" /></svg>