<?xml version="1.0" encoding="UTF-8" standalone="no"?>
<!-- Generator: Adobe Illustrator 19.0.0, SVG Export Plug-In . SVG Version: 6.00 Build 0)  -->

<svg
   xmlns:dc="http://purl.org/dc/elements/1.1/"
   xmlns:cc="http://creativecommons.org/ns#"
   xmlns:rdf="http://www.w3.org/1999/02/22-rdf-syntax-ns#"
   xmlns:svg="http://www.w3.org/2000/svg"
   xmlns="http://www.w3.org/2000/svg"
   xmlns:sodipodi="http://sodipodi.sourceforge.net/DTD/sodipodi-0.dtd"
   xmlns:inkscape="http://www.inkscape.org/namespaces/inkscape"
   version="1.1"
   id="Layer_1"
   x="0px"
   y="0px"
   viewBox="0 0 31.918103 47.949999"
   xml:space="preserve"
   sodipodi:docname="contact-info-icon-1.svg"
   width="31.918102"
   height="47.950001"
   inkscape:version="0.92.0 r15299"><metadata
     id="metadata15"><rdf:RDF><cc:Work
         rdf:about=""><dc:format>image/svg+xml</dc:format><dc:type
           rdf:resource="http://purl.org/dc/dcmitype/StillImage" /><dc:title></dc:title></cc:Work></rdf:RDF></metadata><defs
     id="defs13" /><sodipodi:namedview
     pagecolor="#ffffff"
     bordercolor="#666666"
     borderopacity="1"
     objecttolerance="10"
     gridtolerance="10"
     guidetolerance="10"
     inkscape:pageopacity="0"
     inkscape:pageshadow="2"
     inkscape:window-width="1920"
     inkscape:window-height="1017"
     id="namedview11"
     showgrid="false"
     inkscape:zoom="1.5857199"
     inkscape:cx="137.00556"
     inkscape:cy="43.220237"
     inkscape:window-x="-8"
     inkscape:window-y="-8"
     inkscape:window-maximized="1"
     inkscape:current-layer="Layer_1" /><style
     type="text/css"
     id="style2">
	.st0{fill:#38C4F7;}
	.st1{fill:#263238;}
	.st2{fill:#FEBE5D;}
</style><path
     class="st0"
     d="m 15.959051,0 c -0.3,0 -0.7,0 -1,0 C 3.4590509,0.7 -3.4409491,13.3 1.7590509,23.7 L 12.859051,46 c 1.3,2.6 4.9,2.6 6.2,0 l 11.1,-22.3 c 5.2,-10.4 -1.7,-23 -13.2,-23.7 -0.3,0.1 -0.7,0 -1,0 z"
     id="path4"
     inkscape:connector-curvature="0"
     style="fill:#38c4f7" /><path
     class="st1"
     d="m 26.359051,17.5 c 0,5.8 -4.6,10.4 -10.4,10.4 -5.7,0 -10.4000001,-4.7 -10.4000001,-10.4 0,-5.7 4.7000001,-10.4 10.4000001,-10.4 5.7,0 10.4,4.6 10.4,10.4 z"
     id="path6"
     inkscape:connector-curvature="0"
     style="fill:#263238" /><path
     class="st2"
     d="m 23.959051,17.5 c 0,4.4 -3.6,8 -8,8 -4.4,0 -8.0000001,-3.6 -8.0000001,-8 0,-4.4 3.6000001,-8 8.0000001,-8 4.4,0 8,3.6 8,8 z"
     id="path8"
     inkscape:connector-curvature="0"
     style="fill:#febe5d" /></svg>