<?xml version="1.0" encoding="UTF-8" standalone="no"?>
<!-- Generator: Adobe Illustrator 19.0.0, SVG Export Plug-In . SVG Version: 6.00 Build 0)  -->

<svg
   xmlns:dc="http://purl.org/dc/elements/1.1/"
   xmlns:cc="http://creativecommons.org/ns#"
   xmlns:rdf="http://www.w3.org/1999/02/22-rdf-syntax-ns#"
   xmlns:svg="http://www.w3.org/2000/svg"
   xmlns="http://www.w3.org/2000/svg"
   xmlns:sodipodi="http://sodipodi.sourceforge.net/DTD/sodipodi-0.dtd"
   xmlns:inkscape="http://www.inkscape.org/namespaces/inkscape"
   version="1.1"
   id="Capa_1"
   x="0px"
   y="0px"
   viewBox="0 0 631.64817 231.50791"
   xml:space="preserve"
   sodipodi:docname="dns-tools-logo.svg"
   width="631.64819"
   height="231.5079"
   inkscape:version="0.92.0 r15299"><metadata
     id="metadata123"><rdf:RDF><cc:Work
         rdf:about=""><dc:format>image/svg+xml</dc:format><dc:type
           rdf:resource="http://purl.org/dc/dcmitype/StillImage" /></cc:Work></rdf:RDF></metadata><defs
     id="defs121" /><sodipodi:namedview
     pagecolor="#ffffff"
     bordercolor="#666666"
     borderopacity="1"
     objecttolerance="10"
     gridtolerance="10"
     guidetolerance="10"
     inkscape:pageopacity="0"
     inkscape:pageshadow="2"
     inkscape:window-width="1920"
     inkscape:window-height="1017"
     id="namedview119"
     showgrid="false"
     inkscape:zoom="0.55247979"
     inkscape:cx="641.45026"
     inkscape:cy="-5.4722652"
     inkscape:window-x="-8"
     inkscape:window-y="-8"
     inkscape:window-maximized="1"
     inkscape:current-layer="Capa_1" /><style
     type="text/css"
     id="style2">
	.st0{fill:#030405;}
	.st1{fill:#FFFFFF;}
	.st2{fill:#4FB8B4;}
	.st3{fill:#030405;stroke:#FFFFFF;stroke-width:3;stroke-miterlimit:10;}
	.st4{fill:#070507;}
	.st5{fill:#020203;}
	.st6{fill:#060607;}
	.st7{fill:#030304;}
	.st8{fill:#050606;}
	.st9{fill:#FEFEFE;}
</style><path
     class="st1"
     d="M 204.1482,135.6 V 40.1 h 114.6 l 19.1,19.1 v 57.3 l -19.1,19.1 z m 114.6,-76.4 h -95.5 v 57.3 h 95.5 z"
     id="path6"
     inkscape:connector-curvature="0"
     style="fill:#ffffff" /><polygon
     class="st1"
     points="877.7,228.3 877.7,156.7 896.8,156.7 896.8,252.2 877.7,252.2 782.2,180.5 782.2,252.2 763.1,252.2 763.1,156.7 782.2,156.7 "
     id="polygon8"
     style="fill:#ffffff"
     transform="translate(-412.0518,-116.6)" /><polygon
     class="st1"
     points="910,233.1 1024.6,233.1 1024.6,214 910,214 910,156.7 1043.7,156.7 1043.7,175.8 929.1,175.8 929.1,194.9 1043.7,194.9 1043.7,252.2 910,252.2 "
     id="polygon10"
     style="fill:#ffffff"
     transform="translate(-412.0518,-116.6)" /><polygon
     class="st1"
     points="692.9,274 660,274 660,317.9 649.1,317.9 649.1,274 616.2,274 616.2,263 692.9,263 "
     id="polygon12"
     style="fill:#ffffff"
     transform="translate(-412.0518,-116.6)" /><path
     class="st1"
     d="m 291.8482,146.4 h 76.7 v 54.8 h -76.7 z m 11,43.9 h 54.8 v -32.9 h -54.8 z"
     id="path14"
     inkscape:connector-curvature="0"
     style="fill:#ffffff" /><path
     class="st1"
     d="m 379.5482,146.4 h 76.7 v 54.8 h -76.7 z m 11,43.9 h 54.8 v -32.9 h -54.8 z"
     id="path16"
     inkscape:connector-curvature="0"
     style="fill:#ffffff" /><polygon
     class="st1"
     points="890.2,306.9 956,306.9 956,317.9 879.3,317.9 879.3,263 890.2,263 "
     id="polygon18"
     style="fill:#ffffff"
     transform="translate(-412.0518,-116.6)" /><polygon
     class="st1"
     points="967,306.9 1032.8,306.9 1032.8,295.9 967,295.9 967,263 1043.7,263 1043.7,274 977.9,274 977.9,285 1043.7,285 1043.7,317.9 967,317.9 "
     id="polygon20"
     style="fill:#ffffff"
     transform="translate(-412.0518,-116.6)" /><g
     id="g60"
     transform="translate(-412.0518,-116.6)"><g
       id="g26"><path
         class="st2"
         d="m 551.4,213 -125.2,90.1 c 0,0 60.4,-25.3 131.6,-82 z"
         id="path22"
         inkscape:connector-curvature="0"
         style="fill:#4fb8b4" /><path
         class="st1"
         d="m 547.9,207.3 c 1.6,-1.1 3.8,-0.9 5,0.6 l 2.7,3.4 18.8,-13.6 c 2.1,-1.5 5,-1.1 6.6,0.8 1.5,1.9 1.1,4.7 -1,6.3 l -18.8,13.5 2,2.6 c 1.2,1.5 0.8,3.6 -0.8,4.8 -1.6,1.1 -3.8,0.9 -5,-0.6 l -10.3,-13 c -1.1,-1.5 -0.8,-3.7 0.8,-4.8"
         id="path24"
         inkscape:connector-curvature="0"
         style="fill:#ffffff" /></g><g
       id="g32"><path
         class="st2"
         d="m 443.9,222.6 134.5,75.5 c 0,0 -62.9,-18.4 -140,-66.8 z"
         id="path28"
         inkscape:connector-curvature="0"
         style="fill:#4fb8b4" /><path
         class="st1"
         d="m 446.7,216.5 c -1.7,-1 -3.9,-0.4 -4.9,1.2 l -2.3,3.7 -20.3,-11.4 c -2.3,-1.3 -5.1,-0.6 -6.5,1.5 -1.3,2.1 -0.6,4.8 1.7,6.1 l 20.2,11.4 -1.7,2.8 c -1,1.6 -0.4,3.7 1.3,4.7 1.7,1 3.9,0.4 4.9,-1.2 l 8.8,-14.1 c 1.1,-1.6 0.5,-3.7 -1.2,-4.7"
         id="path30"
         inkscape:connector-curvature="0"
         style="fill:#ffffff" /></g><path
       class="st3"
       d="m 573,169.5 c -1.6,-0.8 -3.1,-1.7 -4.5,-2.7 -5.1,-3.7 -9.5,-8.2 -14.6,-11.8 -3.7,-2.6 -7.4,-5.1 -12.1,-5.6 -0.8,0.1 -1.5,0.1 -2.3,-0.2 -3.5,-0.2 -6.5,0.9 -9.5,2.6 -0.2,-0.2 -0.4,-0.5 -0.5,-0.7 -0.1,-0.1 -0.2,-0.2 -0.3,-0.3 1.9,-2.5 3.7,-5 5.7,-7.3 5.1,-5.6 12.6,-11.8 20.7,-9.2 3.3,1 6.2,2.6 8.8,4.9 0.4,-0.7 0.6,-1.4 0.6,-2.1 -0.1,-1.1 0,-2.2 0.3,-3.3 0,-1.3 -0.4,-2.6 -0.5,-3.9 -0.1,-4.5 -4.6,-10.9 -10.1,-11.6 -0.8,0.1 -1.5,0 -2.3,-0.2 -1.8,0 -3.5,0.4 -5.1,1.1 -4.2,1.6 -7.3,4.7 -10.3,7.9 -5.1,5.4 -9,11.7 -12.9,18 -1.9,-1.7 -3.9,-3.3 -6.1,-4.6 -7.5,-5 -16.5,-7.9 -26.2,-7.9 -26.4,0 -47.7,21.4 -47.7,47.7 0,19.2 11.3,35.7 27.7,43.3 -0.1,0.1 -0.2,0.1 -0.3,0.2 -2.3,1.3 -11.4,10.7 -12.1,11.7 -2.7,3.7 -5.7,7.2 -7,11.7 -1.7,5.7 0,9.9 5.4,12.6 3.6,1.8 7.4,2.6 11.3,2.9 1.5,0.1 3.6,-0.3 3.7,2.2 0.1,3.4 0.6,6.6 -2.4,9.5 -6.3,6.2 -12.2,12.8 -18.2,19.3 -5.5,6 -5.8,7.5 -2.2,14.7 1.3,2.5 1.4,4.8 1.1,7.5 -0.8,7.6 -4.4,13.6 -10.5,18.1 -2.8,2 -5.6,4.1 -7.2,7.3 -2,4 -1.2,5.2 3.2,5.3 2.8,0 5.6,-0.1 8.4,0 6.8,0.2 11.5,-3.2 14.6,-9 1,-1.8 1.4,-4 2,-6 1.9,-7 5,-12.7 13.1,-14.1 3.8,-0.6 6.5,-3.1 8,-7.1 1.8,-5.1 5,-9.5 9.5,-12.8 4.6,-3.4 9.4,-4.4 14.6,-1.4 4.4,2.6 8.9,4.9 13.1,7.7 7.7,5.2 9.1,9 6.6,17.9 -0.7,2.7 -0.2,3.8 2.3,4.7 9.6,3.3 19.4,5.9 29.6,6.1 3.2,0.1 7.9,0.8 8.7,-2.4 0.7,-2.7 -4,-4 -6.7,-5.4 -4.3,-2.3 -8.9,-4.1 -13.2,-6.4 -5.4,-3 -5.5,-5.7 -0.7,-9.7 1.8,-1.5 3.7,-2.6 5.6,-4 5.6,-4.3 6.3,-9.4 1.6,-14.7 -2.3,-2.5 -4.9,-4.8 -7.7,-6.8 -1.5,-1 -3.1,-2.1 -4.6,-3.1 5.4,-1.6 10.3,-3.7 13.1,-6.4 15.7,-15 -12.9,-36.5 -23.7,-44 -5.7,-4 -11.7,-4.5 -18.4,-6.2 4.7,-2.3 9.1,-5.3 12.8,-8.9 0.7,-0.7 1.5,-1.3 2.2,-2.1 8,-8.3 12.9,-19.6 12.9,-32.1 0,-3.3 -0.8,-7.1 -1.9,-10.9 -0.7,-3.2 -1.8,-6.2 -3.1,-9.1 0.1,0.1 0.2,0.1 0.2,0.2 5.9,-0.3 10.5,3.2 14.4,7.8 2.6,3.1 9.4,15.9 14.4,15 0.7,-0.1 1.3,-0.1 1.9,0.2 3.5,-0.2 6.2,-2 8.8,-4.2 3.3,-2.7 6.2,-5.6 8.9,-9.5 -3.9,1.8 -7.4,1.2 -10.9,-0.4 z m -49.6,82.8 c 0.1,-0.3 0.2,-0.6 0.3,-0.8 2.4,0.5 17.4,3.9 15,12.2 -0.4,1.4 -9.6,1.3 -16.5,1 0,-4.2 0.1,-8.3 1.2,-12.4 z"
       id="path34"
       inkscape:connector-curvature="0"
       style="fill:#030405;stroke:#ffffff;stroke-width:3;stroke-miterlimit:10" /><path
       class="st4"
       d="m 507.5,185 c 0,0 6.5,-2.3 10.1,-1.6 0,0 -6.4,-6.4 -10.1,1.6"
       id="path36"
       inkscape:connector-curvature="0"
       style="fill:#070507" /><path
       class="st4"
       d="m 493.1,180.9 c 0,0 7.2,0.5 10.3,2.6 0,0 -3.4,-8.4 -10.3,-2.6"
       id="path38"
       inkscape:connector-curvature="0"
       style="fill:#070507" /><path
       class="st5"
       d="m 480.5,193.8 c 0,0 2.3,-2.1 4.6,-2.7 2.3,-0.6 5.1,1.5 5.1,1.5 l 0.4,-2.4 c 0,0 -3.4,-2.9 -6.7,-1.3 -3.4,1.7 -4.4,3.8 -4.4,3.8 z"
       id="path40"
       inkscape:connector-curvature="0"
       style="fill:#020203" /><path
       class="st6"
       d="m 454.6,177 c 0.4,0.7 -0.2,1.4 -0.1,2.1 0,0 -0.2,-0.2 -0.3,-0.3 0,-0.7 0.1,-1.3 0.4,-1.8"
       id="path42"
       inkscape:connector-curvature="0"
       style="fill:#060607" /><path
       class="st7"
       d="m 487.8,147.6 c 0.1,0.1 0.5,0.2 0.3,0.3 -0.5,0.2 -1,0.2 -1.5,-0.2 0.5,0 0.9,0 1.2,-0.1"
       id="path44"
       inkscape:connector-curvature="0"
       style="fill:#030304" /><path
       class="st8"
       d="m 484.7,148.3 c 0.1,0 0.2,0 0.3,0.1 0.2,0.2 0,0.2 -0.1,0.2 -0.4,0 -0.7,0.1 -1,-0.2 0.3,-0.1 0.6,-0.1 0.8,-0.1"
       id="path46"
       inkscape:connector-curvature="0"
       style="fill:#050606" /><path
       class="st1"
       d="m 496.3,197.7 c 10.5,-1 20.9,-3.4 30.5,-7.9 -0.3,9 -7.7,17 -15.3,21.1 -7.1,3.8 -15.6,4.8 -23.5,3.4 -7.9,-1.4 -15.4,-5.1 -21.6,-10.3 -2.2,-1.8 -4.3,-3.8 -5.8,-6.3 9.7,-0.2 19.3,0.9 29,0.4 2.2,0 4.5,-0.1 6.7,-0.4"
       id="path48"
       inkscape:connector-curvature="0"
       style="fill:#ffffff" /><path
       class="st1"
       d="m 528.5,176 c -0.2,-2.1 -1.1,-4.4 -1.9,-6.1 -4.5,-9.8 -15.7,-19.5 -27.1,-19.2 0.5,0.5 1.4,0.5 2.1,0.7 6,2.6 11.4,5.3 16.2,9.9 2.3,2.3 4.4,4.8 6.1,7.5 1.8,2.8 2.6,6.5 4.5,9.1 0.2,-0.6 0.2,-1.2 0.1,-1.9"
       id="path50"
       inkscape:connector-curvature="0"
       style="fill:#ffffff" /><path
       class="st8"
       d="m 492.7,204.4 c 0,0 0,0 0,0 0.1,-1 -1.7,-1.7 -2.4,-2 -3,-1.1 -6.2,-1.6 -9.4,-1.8 -1.7,-0.1 -3.3,-0.2 -5,-0.2 -0.8,0 -3.3,0.6 -3.8,0.4 3.3,1.4 8,0.6 10.9,2.6 -0.8,0.7 -1.8,1.5 -2,2.6 -0.2,1.6 0.8,3.1 2.3,3.6 1.8,0.5 3.7,-0.2 4.3,-2 0.3,-0.7 0.7,-1 1.3,-1.2 0.8,-0.3 1.6,-0.6 2.4,-1.1 0.7,-0.4 1.3,0 1.4,-0.9 m -9.8,-3.3 c -0.1,0 -0.1,0 -0.2,0 -0.1,-0.1 0.3,-0.2 0.2,0 m 2.3,0.3 c 0,0 -0.1,0 0,0 -0.1,0 -0.1,0 -0.2,-0.1 0.1,0 0.1,0.1 0.2,0.1"
       id="path52"
       inkscape:connector-curvature="0"
       style="fill:#050606" /><path
       class="st0"
       d="m 517.6,197.4 c -1,-0.4 -4.9,1.1 -6.2,1.4 -2.9,0.6 -5.7,1.7 -8.2,3.3 -2.1,1.4 -1.5,1.9 0.5,2.3 0.9,0.2 1.8,1.1 2.7,0 0.6,2.2 1.6,3.2 3.4,3.1 1.3,-0.1 2.7,-1.3 2.9,-2.5 0.2,-1 -0.3,-1.8 -1,-2.5 -0.7,-0.7 -1.6,-0.8 -2.5,-1.1 1.4,-0.8 2.8,-1.6 4.3,-2.2 0,0 0,0 0,0 1.4,-0.6 3.1,-0.8 4.1,-1.8"
       id="path54"
       inkscape:connector-curvature="0"
       style="fill:#030405" /><path
       class="st1"
       d="m 516.3,279.9 c 1.3,-0.3 3.1,0.4 3.1,0.4 4.6,-6.9 -1.8,-12.8 -1.8,-12.8 0,0 -3.6,-3.4 -11.1,-3.9 -0.5,0 -1,0 -1.4,0.1 -2.8,-0.8 -7,-1.2 -4.2,3.9 0,0 -5.3,2.4 0.3,5.6 0,0 -3,3.4 2,5 0,0 -1.2,4.3 4.5,3 3.9,2.1 7.4,-1 8.6,-1.3"
       id="path56"
       inkscape:connector-curvature="0"
       style="fill:#ffffff" /><path
       class="st9"
       d="m 493,234.3 c 2.5,-0.2 4.7,-0.4 6.9,-0.5 3.3,-0.2 4.7,1.7 4,4.6 -0.9,3.9 -2.2,7.7 -3.6,11.4 -0.7,1.7 -1.7,3.7 -4.3,2 -1,-0.7 -1.6,-0.1 -1.9,1.1 -0.6,2.2 -2.1,3.8 -4,5.1 -1.5,1 -3.3,1.6 -5.1,0.7 -1.7,-0.9 -1.8,-2.6 -1.8,-4.3 0.2,-6.2 2.8,-11.8 4.5,-17.6 1.4,-5 3.2,-9.9 4.8,-14.9 0.3,-0.8 0.5,-1.6 0.9,-2.3 0.6,-1.1 1.3,-2.3 2.8,-1.8 1.2,0.5 1.4,1.7 1.1,2.8 -1.1,4.5 -1.7,9.2 -4.3,13.7"
       id="path58"
       inkscape:connector-curvature="0"
       style="fill:#fefefe" /></g></svg>