<?xml version="1.0" encoding="UTF-8" standalone="no"?>
<!-- Generator: Adobe Illustrator 19.0.0, SVG Export Plug-In . SVG Version: 6.00 Build 0)  -->

<svg
   xmlns:dc="http://purl.org/dc/elements/1.1/"
   xmlns:cc="http://creativecommons.org/ns#"
   xmlns:rdf="http://www.w3.org/1999/02/22-rdf-syntax-ns#"
   xmlns:svg="http://www.w3.org/2000/svg"
   xmlns="http://www.w3.org/2000/svg"
   xmlns:sodipodi="http://sodipodi.sourceforge.net/DTD/sodipodi-0.dtd"
   xmlns:inkscape="http://www.inkscape.org/namespaces/inkscape"
   version="1.1"
   id="Layer_1"
   x="0px"
   y="0px"
   viewBox="0 0 600.3 499.99999"
   xml:space="preserve"
   sodipodi:docname="home-cta-left.svg"
   width="600.29999"
   height="500"
   inkscape:version="0.92.0 r15299"><metadata
     id="metadata225"><rdf:RDF><cc:Work
         rdf:about=""><dc:format>image/svg+xml</dc:format><dc:type
           rdf:resource="http://purl.org/dc/dcmitype/StillImage" /><dc:title></dc:title></cc:Work></rdf:RDF></metadata><defs
     id="defs223" /><sodipodi:namedview
     pagecolor="#ffffff"
     bordercolor="#666666"
     borderopacity="1"
     objecttolerance="10"
     gridtolerance="10"
     guidetolerance="10"
     inkscape:pageopacity="0"
     inkscape:pageshadow="2"
     inkscape:window-width="1920"
     inkscape:window-height="1017"
     id="namedview221"
     showgrid="false"
     inkscape:zoom="0.56063664"
     inkscape:cx="-100.7179"
     inkscape:cy="14.719737"
     inkscape:window-x="-8"
     inkscape:window-y="-8"
     inkscape:window-maximized="1"
     inkscape:current-layer="Layer_1" /><style
     type="text/css"
     id="style2">
	.st0{fill:#FFFFFF;}
	.st1{fill:#313140;}
	.st2{fill-rule:evenodd;clip-rule:evenodd;fill:#231F20;}
	.st3{fill:#231F20;}
	.st4{fill:#D1D3D4;}
	.st5{fill:#FFCC54;}
	.st6{fill:#32BFD3;}
	.st7{fill:#FFC758;}
	.st8{fill:#FFA432;}
	.st9{fill:#FFA334;}
	.st10{fill:#FFCA57;}
</style><g
     id="g8"
     transform="matrix(1.3985288,0,0,1.516741,-175.28703,-362.5698)"
     style="fill:#70ccdc;fill-opacity:1"><path
       class="st0"
       d="m 484.8,404.2 c 0,71.8 -58.2,130 -130,130 -71.8,0 -130,-58.2 -130,-130 0,-71.8 58.2,-130.1 130,-130.1 71.8,0 130,58.3 130,130.1 z"
       id="path4"
       inkscape:connector-curvature="0"
       style="fill:#70ccdc;fill-opacity:1" /><path
       class="st0"
       d="m 291.2,501 c 0,36.7 -29.7,66.4 -66.4,66.4 -36.7,0 -66.4,-29.7 -66.4,-66.4 0,-36.7 29.7,-66.4 66.4,-66.4 36.7,0 66.4,29.7 66.4,66.4 z"
       id="path6"
       inkscape:connector-curvature="0"
       style="fill:#70ccdc;fill-opacity:1" /></g><g
     id="g14"
     transform="matrix(1.3985288,0,0,1.516741,-140.00895,-358.7438)"><rect
       x="187.7"
       y="462.70001"
       class="st1"
       width="11.2"
       height="67.300003"
       id="rect10"
       style="fill:#313140" /><rect
       x="145.89999"
       y="518.79999"
       class="st1"
       width="102.4"
       height="11.2"
       id="rect12"
       style="fill:#313140" /></g><g
     id="g24"
     transform="matrix(1.3985288,0,0,1.516741,-140.00895,-358.7438)"><rect
       x="286.39999"
       y="355.10001"
       class="st1"
       width="11.2"
       height="68"
       id="rect16"
       style="fill:#313140" /><rect
       x="244.5"
       y="411.10001"
       class="st0"
       width="102.4"
       height="12"
       id="rect18"
       style="fill:#ffffff" /><g
       id="g22"><path
         class="st2"
         d="m 255.4,418.5 h -7.1 v -2.8 h 7.1 z m 14.2,0 h -7.1 v -2.8 h 7.1 z m 14.2,0 h -7.1 v -2.8 h 7.1 z m 14.2,0 h -7.1 v -2.8 h 7.1 z m 14.2,0 h -7.1 v -2.8 h 7.1 z m 14.3,0 h -7.1 v -2.8 h 7.1 z m 14.2,0 h -7.1 v -2.8 h 7.1 z"
         id="path20"
         inkscape:connector-curvature="0"
         style="clip-rule:evenodd;fill:#231f20;fill-rule:evenodd" /></g></g><g
     id="g36"
     transform="matrix(1.3985288,0,0,1.516741,-140.00895,-358.7438)"><rect
       x="429.10001"
       y="442.5"
       class="st1"
       width="11.9"
       height="67.300003"
       id="rect26"
       style="fill:#313140" /><rect
       x="387.20001"
       y="498.60001"
       class="st1"
       width="102.4"
       height="11.2"
       id="rect28"
       style="fill:#313140" /><g
       id="g34"><g
         id="g32"><rect
           x="391"
           y="503.10001"
           class="st3"
           width="3.5999999"
           height="2.8"
           id="rect30"
           style="fill:#231f20" /></g></g></g><path
     class="st0"
     d="m 179.83461,285.56774 c -11.46792,0 -22.09674,3.33683 -30.90748,9.85881 -6.01367,-7.28035 -14.12514,-12.74062 -23.35543,-14.40902 0.41956,-2.88182 0.55942,-5.91529 0.55942,-8.79711 0,-32.60992 -24.33441,-59.00122 -54.402784,-59.00122 -30.068371,0 -54.402775,26.3913 -54.402775,59.00122 0,4.85357 0.559412,9.4038 1.538383,13.95401 -4.055735,-1.06171 -8.251322,-0.45501 -12.586761,-0.45501 -30.068373,0 -54.402775,23.81282 -54.402775,60.06293 H 233.95769 c 0.27971,-36.40177 -24.0547,-60.21461 -54.12308,-60.21461 z"
     id="path38"
     inkscape:connector-curvature="0"
     style="fill:#ffffff;stroke-width:1.45643616" /><g
     id="g50"
     transform="matrix(1.3985288,0,0,1.516741,-140.00895,-358.7438)"><path
       class="st0"
       d="m 352.8,332.6 c -8.2,0 -15.8,2.2 -22,6.5 -4.3,-4.8 -10.1,-8.4 -16.7,-9.5 0.3,-1.9 0.4,-3.9 0.4,-5.8 0,-21.5 -17.4,-38.9 -38.9,-38.9 -21.5,0 -38.9,17.4 -38.9,38.8 0,3.2 0.4,6.2 1.1,9.2 -2.9,-0.7 -5.9,-0.3 -8.9,-0.3 -21.5,0 -38.9,15.7 -38.9,39.6 h 201.7 c 0,-23.8 -17.4,-39.6 -38.9,-39.6 z"
       id="path40"
       inkscape:connector-curvature="0"
       style="fill:#ffffff" /><g
       id="g44"><path
         class="st4"
         d="m 237.8,332.9 c 0,0 4.8,3.8 6.3,4.6"
         id="path42"
         inkscape:connector-curvature="0"
         style="fill:#d1d3d4" /></g><g
       id="g48"><path
         class="st4"
         d="m 330.8,338.8 c 0,0 -2.2,3.7 -2.2,6.5"
         id="path46"
         inkscape:connector-curvature="0"
         style="fill:#d1d3d4" /></g></g><g
     id="g64"
     transform="matrix(1.3985288,0,0,1.516741,-140.00895,-358.7438)"><path
       class="st0"
       d="m 492.2,420.7 c -8.2,0 -15.8,2.1 -22.1,6.4 -4.3,-4.8 -10.1,-8.4 -16.7,-9.5 0.3,-1.9 0.4,-3.9 0.4,-5.8 0,-21.5 -17.4,-38.9 -38.9,-38.9 -21.5,0 -38.9,17.4 -38.9,38.8 0,3.2 0.4,6.2 1.1,9.2 -2.9,-0.7 -5.9,-0.1 -9,-0.1 -21.5,0 -38.9,15.9 -38.9,39.8 H 531 c 0,-24.1 -17.4,-39.9 -38.8,-39.9 z"
       id="path52"
       inkscape:connector-curvature="0"
       style="fill:#ffffff" /><g
       id="g58"><path
         class="st4"
         d="m 377.2,420.8 c 0,0 4.8,3.8 6.3,4.6"
         id="path54"
         inkscape:connector-curvature="0"
         style="fill:#d1d3d4" /><path
         class="st3"
         d="m 382.8,426.6 c -1.6,-0.9 -6,-4.4 -6.5,-4.8 l 1.8,-2.2 c 1.9,1.5 5,3.9 6.1,4.5 z"
         id="path56"
         inkscape:connector-curvature="0"
         style="fill:#231f20" /></g><g
       id="g62"><path
         class="st4"
         d="m 470.1,426.6 c 0,0 -2.1,3.7 -2.2,6.5"
         id="path60"
         inkscape:connector-curvature="0"
         style="fill:#d1d3d4" /></g></g><g
     id="g214"
     transform="matrix(1.3985288,0,0,1.516741,-140.00895,-358.7438)"><rect
       x="250.5"
       y="438.79999"
       class="st5"
       width="151"
       height="14.2"
       id="rect66"
       style="fill:#ffcc54" /><rect
       x="249"
       y="494.79999"
       class="st5"
       width="150.89999"
       height="14.9"
       id="rect68"
       style="fill:#ffcc54" /><rect
       x="248.2"
       y="551.59998"
       class="st5"
       width="150.89999"
       height="14.9"
       id="rect70"
       style="fill:#ffcc54" /><g
       id="g74"><rect
         x="238.5"
         y="395.39999"
         class="st6"
         width="174.89999"
         height="42.599998"
         id="rect72"
         style="fill:#32bfd3" /></g><g
       id="g78"><rect
         x="237.8"
         y="453"
         class="st6"
         width="174.89999"
         height="41.799999"
         id="rect76"
         style="fill:#32bfd3" /></g><g
       id="g82"><rect
         x="237"
         y="509.79999"
         class="st6"
         width="174.89999"
         height="41.799999"
         id="rect80"
         style="fill:#32bfd3" /></g><g
       id="g86"><rect
         x="249.10001"
         y="404.39999"
         class="st7"
         width="2.8"
         height="21.700001"
         id="rect84"
         style="fill:#ffc758" /></g><g
       id="g90"><rect
         x="258"
         y="404.39999"
         class="st7"
         width="2.8"
         height="21.700001"
         id="rect88"
         style="fill:#ffc758" /></g><g
       id="g94"><rect
         x="267"
         y="404.39999"
         class="st7"
         width="2.8"
         height="21.700001"
         id="rect92"
         style="fill:#ffc758" /></g><g
       id="g98"><rect
         x="276.70001"
         y="404.39999"
         class="st7"
         width="2.8"
         height="21.700001"
         id="rect96"
         style="fill:#ffc758" /></g><g
       id="g102"><rect
         x="285.70001"
         y="404.39999"
         class="st7"
         width="2.8"
         height="21.700001"
         id="rect100"
         style="fill:#ffc758" /></g><rect
       x="296.10001"
       y="404.39999"
       class="st1"
       width="104.6"
       height="11.2"
       id="rect104"
       style="fill:#313140" /><path
       class="st0"
       d="m 393,418.7 c 0,5.9 -4.8,10.7 -10.7,10.7 -5.9,0 -10.7,-4.8 -10.7,-10.7 0,-5.9 4.8,-10.7 10.7,-10.7 5.9,0 10.7,4.8 10.7,10.7 z"
       id="path106"
       inkscape:connector-curvature="0"
       style="fill:#ffffff" /><path
       class="st0"
       d="m 271.4,473.4 c 0,5.9 -4.8,10.7 -10.7,10.7 -5.9,0 -10.7,-4.8 -10.7,-10.7 0,-5.9 4.8,-10.7 10.7,-10.7 5.9,0 10.7,4.8 10.7,10.7 z"
       id="path108"
       inkscape:connector-curvature="0"
       style="fill:#ffffff" /><path
       class="st0"
       d="m 306.3,473.4 c 0,5.9 -4.8,10.7 -10.7,10.7 -5.9,0 -10.7,-4.8 -10.7,-10.7 0,-5.9 4.8,-10.7 10.7,-10.7 5.9,0 10.7,4.8 10.7,10.7 z"
       id="path110"
       inkscape:connector-curvature="0"
       style="fill:#ffffff" /><path
       class="st0"
       d="m 339.7,473.4 c 0,5.9 -4.8,10.7 -10.7,10.7 -5.9,0 -10.7,-4.8 -10.7,-10.7 0,-5.9 4.8,-10.7 10.7,-10.7 5.9,0 10.7,4.8 10.7,10.7 z"
       id="path112"
       inkscape:connector-curvature="0"
       style="fill:#ffffff" /><g
       id="g116"><rect
         x="296.10001"
         y="421.70001"
         class="st7"
         width="56"
         height="2.8"
         id="rect114"
         style="fill:#ffc758" /></g><g
       id="g120"><rect
         x="356.60001"
         y="421.70001"
         class="st7"
         width="7.5"
         height="2.8"
         id="rect118"
         style="fill:#ffc758" /></g><rect
       x="299"
       y="406.60001"
       class="st8"
       width="3"
       height="6.6999998"
       id="rect122"
       style="fill:#ffa432" /><rect
       x="306.5"
       y="406.60001"
       class="st8"
       width="3"
       height="6.6999998"
       id="rect124"
       style="fill:#ffa432" /><rect
       x="313.29999"
       y="406.60001"
       class="st8"
       width="3"
       height="6.6999998"
       id="rect126"
       style="fill:#ffa432" /><rect
       x="320.70001"
       y="406.60001"
       class="st8"
       width="3"
       height="6.6999998"
       id="rect128"
       style="fill:#ffa432" /><rect
       x="327.5"
       y="406.60001"
       class="st8"
       width="3"
       height="6.6999998"
       id="rect130"
       style="fill:#ffa432" /><rect
       x="334.89999"
       y="406.60001"
       class="st9"
       width="3"
       height="6.6999998"
       id="rect132"
       style="fill:#ffa334" /><rect
       x="341.60001"
       y="406.60001"
       class="st9"
       width="3"
       height="6.6999998"
       id="rect134"
       style="fill:#ffa334" /><rect
       x="349.10001"
       y="406.60001"
       class="st9"
       width="3"
       height="6.6999998"
       id="rect136"
       style="fill:#ffa334" /><rect
       x="355.89999"
       y="406.60001"
       class="st9"
       width="3"
       height="6.6999998"
       id="rect138"
       style="fill:#ffa334" /><rect
       x="364.10001"
       y="406.60001"
       class="st9"
       width="3"
       height="6.6999998"
       id="rect140"
       style="fill:#ffa334" /><rect
       x="350.60001"
       y="462.70001"
       class="st10"
       width="8.1999998"
       height="12.7"
       id="rect142"
       style="fill:#ffca57" /><rect
       x="364.79999"
       y="462.70001"
       class="st10"
       width="8.1999998"
       height="12.7"
       id="rect144"
       style="fill:#ffca57" /><rect
       x="379"
       y="462.70001"
       class="st10"
       width="8.1999998"
       height="12.7"
       id="rect146"
       style="fill:#ffca57" /><rect
       x="393.20001"
       y="462.70001"
       class="st10"
       width="8.1999998"
       height="12.7"
       id="rect148"
       style="fill:#ffca57" /><g
       id="g152"><rect
         x="350.60001"
         y="467.29999"
         class="st0"
         width="8.1999998"
         height="2.8"
         id="rect150"
         style="fill:#ffffff" /></g><g
       id="g156"><rect
         x="364.79999"
         y="467.29999"
         class="st0"
         width="8.1999998"
         height="2.8"
         id="rect154"
         style="fill:#ffffff" /></g><g
       id="g160"><rect
         x="379"
         y="467.29999"
         class="st0"
         width="8.1999998"
         height="2.8"
         id="rect158"
         style="fill:#ffffff" /></g><g
       id="g164"><rect
         x="393.20001"
         y="467.29999"
         class="st0"
         width="8.1999998"
         height="2.8"
         id="rect162"
         style="fill:#ffffff" /></g><rect
       x="341.60001"
       y="518.79999"
       class="st5"
       width="58.299999"
       height="22.4"
       id="rect166"
       style="fill:#ffcc54" /><path
       class="st0"
       d="m 270,530.3 c 0,5.9 -4.8,10.7 -10.7,10.7 -5.9,0 -10.7,-4.8 -10.7,-10.7 0,-5.9 4.8,-10.7 10.7,-10.7 5.9,0 10.7,4.8 10.7,10.7 z"
       id="path168"
       inkscape:connector-curvature="0"
       style="fill:#ffffff" /><g
       id="g172"><rect
         x="349.89999"
         y="518.79999"
         class="st0"
         width="2.8"
         height="22.4"
         id="rect170"
         style="fill:#ffffff" /></g><g
       id="g176"><rect
         x="346.89999"
         y="517.29999"
         class="st0"
         width="8.1999998"
         height="2.8"
         id="rect174"
         style="fill:#ffffff" /></g><g
       id="g180"><rect
         x="361.89999"
         y="518.79999"
         class="st0"
         width="2.8"
         height="22.4"
         id="rect178"
         style="fill:#ffffff" /></g><g
       id="g184"><rect
         x="358.79999"
         y="539.70001"
         class="st0"
         width="9"
         height="2.8"
         id="rect182"
         style="fill:#ffffff" /></g><g
       id="g188"><rect
         x="378.29999"
         y="518.79999"
         class="st0"
         width="2.8"
         height="22.4"
         id="rect186"
         style="fill:#ffffff" /></g><g
       id="g192"><rect
         x="375.29999"
         y="517.29999"
         class="st0"
         width="9"
         height="2.8"
         id="rect190"
         style="fill:#ffffff" /></g><g
       id="g196"><rect
         x="390.29999"
         y="518.79999"
         class="st0"
         width="2.8"
         height="22.4"
         id="rect194"
         style="fill:#ffffff" /></g><g
       id="g200"><rect
         x="387.20001"
         y="539.70001"
         class="st0"
         width="9"
         height="2.8"
         id="rect198"
         style="fill:#ffffff" /></g><g
       id="g204"><rect
         x="279.60001"
         y="521.79999"
         class="st0"
         width="54.599998"
         height="2.8"
         id="rect202"
         style="fill:#ffffff" /></g><g
       id="g208"><rect
         x="279.60001"
         y="528.5"
         class="st0"
         width="54.599998"
         height="2.8"
         id="rect206"
         style="fill:#ffffff" /></g><g
       id="g212"><rect
         x="279.60001"
         y="536"
         class="st0"
         width="54.599998"
         height="2.8"
         id="rect210"
         style="fill:#ffffff" /></g></g><g
     id="g218"
     transform="matrix(1.3985288,0,0,1.516741,-140.00895,-358.7438)"><polygon
       class="st1"
       points="473.6,519.5 473.6,526.9 473.6,526.8 448.7,526.8 448.7,540.4 473.3,540.4 473.3,548.3 492.7,533.9 "
       id="polygon216"
       style="fill:#313140" /></g></svg>