<?xml version="1.0" encoding="UTF-8" standalone="no"?>
<!-- Generator: Adobe Illustrator 19.0.0, SVG Export Plug-In . SVG Version: 6.00 Build 0)  -->

<svg
   xmlns:dc="http://purl.org/dc/elements/1.1/"
   xmlns:cc="http://creativecommons.org/ns#"
   xmlns:rdf="http://www.w3.org/1999/02/22-rdf-syntax-ns#"
   xmlns:svg="http://www.w3.org/2000/svg"
   xmlns="http://www.w3.org/2000/svg"
   xmlns:sodipodi="http://sodipodi.sourceforge.net/DTD/sodipodi-0.dtd"
   xmlns:inkscape="http://www.inkscape.org/namespaces/inkscape"
   version="1.1"
   id="Layer_1"
   x="0px"
   y="0px"
   viewBox="0 0 800.00001 649.99999"
   xml:space="preserve"
   sodipodi:docname="home-cta-right.svg"
   width="800"
   height="650"
   inkscape:version="0.92.0 r15299"><metadata
     id="metadata71"><rdf:RDF><cc:Work
         rdf:about=""><dc:format>image/svg+xml</dc:format><dc:type
           rdf:resource="http://purl.org/dc/dcmitype/StillImage" /><dc:title></dc:title></cc:Work></rdf:RDF></metadata><defs
     id="defs69" /><sodipodi:namedview
     pagecolor="#ffffff"
     bordercolor="#666666"
     borderopacity="1"
     objecttolerance="10"
     gridtolerance="10"
     guidetolerance="10"
     inkscape:pageopacity="0"
     inkscape:pageshadow="2"
     inkscape:window-width="1920"
     inkscape:window-height="1017"
     id="namedview67"
     showgrid="false"
     inkscape:zoom="0.79285994"
     inkscape:cx="285.56392"
     inkscape:cy="143.66213"
     inkscape:window-x="-8"
     inkscape:window-y="-8"
     inkscape:window-maximized="1"
     inkscape:current-layer="Layer_1" /><style
     type="text/css"
     id="style2">
	.st0{fill:#FFFFFF;}
	.st1{fill:#32BFD3;}
	.st2{fill:#00BFD3;}
	.st3{fill:#FFCC51;}
	.st4{fill:#313140;}
	.st5{fill:#FFCA54;}
</style><path
     class="st0"
     d="m 678.47035,337.51328 c 0,117.89413 -93.77181,213.45734 -209.45594,213.45734 -115.68412,0 -209.45594,-95.56321 -209.45594,-213.45734 0,-117.89415 93.77182,-213.62156 209.45594,-213.62156 115.68413,0 209.45594,95.72741 209.45594,213.62156 z"
     id="path4"
     inkscape:connector-curvature="0"
     style="fill:#ffffff;stroke-width:1.62651682" /><g
     id="g10"
     transform="matrix(1.6111996,0,0,1.6419796,92.38157,-291.85573)"><g
       id="g8"><path
         class="st0"
         d="m 489.6,463.5 c -25.3,0 -48.8,6.8 -68.1,20.2 -13.1,-15 -31.2,-25.9 -51.7,-29.4 0.8,-5.8 1.3,-11.9 1.3,-17.9 C 371.1,370 317.3,316 251,316 c -66.3,0 -120.1,53.8 -120.1,120.2 0,9.8 1.2,19.3 3.4,28.4 -8.9,-2.1 -18.1,-1.1 -27.7,-1.1 -66.3,0 -120.1,48.3 -120.1,122.4 h 623.2 c 0,-74 -53.8,-122.4 -120.1,-122.4 z"
         id="path6"
         inkscape:connector-curvature="0"
         style="fill:#ffffff" /></g></g><ellipse
     style="opacity:1;fill:#88d5e2;fill-opacity:1;stroke:#ffa897;stroke-width:0.40202504;stroke-miterlimit:4;stroke-dasharray:none;stroke-opacity:1"
     id="path4589"
     cx="670.4696"
     cy="-317.61029"
     transform="scale(1,-1)"
     rx="212.49533"
     ry="216.83467" /><g
     id="g18"
     transform="matrix(1.6111996,0,0,1.6419796,88.198591,-293.56309)"><ellipse
       class="st1"
       cx="176.10001"
       cy="438.89999"
       rx="21.6"
       ry="22"
       id="ellipse12"
       style="fill:#32bfd3" /><g
       id="g16"><polygon
         class="st0"
         points="181.9,445.4 169.1,438.9 181.9,432.3 "
         id="polygon14"
         style="fill:#ffffff" /></g></g><g
     id="g56"
     transform="matrix(1.6111996,0,0,1.6419796,88.198591,-293.56309)"><path
       class="st2"
       d="m 436.3,364.6 c 0,-5.8 -6.1,-9.3 -11.9,-9.3 H 221.5 c -5.8,0 -10.9,3.5 -10.9,9.3 v 148.2 h 225.7 z"
       id="path20"
       inkscape:connector-curvature="0"
       style="fill:#00bfd3" /><g
       id="g24"><path
         class="st2"
         d="m 192.1,514.7 v 10.8 c 0,5.8 7.5,11.3 14.1,11.3 h 233.5 c 6.6,0 11.6,-5.6 11.6,-11.3 v -10.8 z"
         id="path22"
         inkscape:connector-curvature="0"
         style="fill:#00bfd3" /></g><g
       id="g28"><rect
         x="224.5"
         y="367"
         class="st3"
         width="194.39999"
         height="133"
         id="rect26"
         style="fill:#ffcc51" /></g><g
       id="g54"><g
         id="g36"><g
           id="g34"><g
             id="g32"><path
               class="st0"
               d="m 390.2,441.7 -1.4,-1.4 3.2,-3.1 -3.2,-3.2 1.4,-1.4 3.9,3.9 c 0.2,0.2 0.3,0.4 0.3,0.7 0,0.3 -0.1,0.5 -0.3,0.7 z"
               id="path30"
               inkscape:connector-curvature="0"
               style="fill:#ffffff" /></g></g></g><g
         id="g44"><g
           id="g42"><g
             id="g40"><path
               class="st0"
               d="m 247.9,432.5 1.3,1.5 -3,3.2 3.1,3.3 -1.3,1.4 -3.8,-4 c -0.2,-0.2 -0.3,-0.5 -0.3,-0.7 0,-0.3 0.1,-0.5 0.3,-0.7 z"
               id="path38"
               inkscape:connector-curvature="0"
               style="fill:#ffffff" /></g></g></g><g
         id="g52"><g
           id="g48"><path
             class="st4"
             d="m 332.4,469.5 v -8.6 c 2,-0.5 3.2,-1.2 4.6,-2 l 6.1,6 c 0.6,0.6 1.5,0.6 2.1,0 l 8.6,-8.7 c 0.6,-0.6 0.6,-1.5 0,-2.1 l -6,-6.1 c 0.8,-1.5 1.4,-2.7 1.9,-4.7 l 8.5,-0.1 c 0.8,0 1.4,-0.6 1.4,-1.4 l -0.1,-12.3 c 0,-0.8 -0.6,-1.6 -1.5,-1.6 h -8.5 c -0.5,-2 -1.1,-3.1 -1.9,-4.6 l 6,-6.1 c 0.6,-0.6 0.6,-1.5 0,-2.1 l -8.7,-8.6 c -0.6,-0.6 -1.5,-0.6 -2.1,0 l -6,6.1 c -1.5,-0.8 -2.6,-1.4 -4.6,-1.9 l -0.1,-8.6 c 0,-0.8 -0.6,-1.6 -1.4,-1.6 l -12.2,0.1 c -0.8,0 -1.5,0.8 -1.5,1.6 v 8.6 c -2,0.5 -3.1,1.2 -4.6,2 l -6,-6 c -0.6,-0.6 -1.5,-0.6 -2.1,0 l -8.6,8.7 c -0.6,0.6 -0.6,1.5 0,2.1 l 6.1,6 c -0.8,1.5 -1.4,2.6 -1.9,4.6 h -8.5 c -0.8,0 -1.6,0.8 -1.6,1.6 l 0.1,12.3 c 0,0.8 0.8,1.4 1.6,1.4 h 8.5 c 0.5,2 1.2,3.2 1.9,4.7 l -6,6.1 c -0.6,0.6 -0.6,1.5 0,2.1 l 8.7,8.6 c 0.6,0.6 1.5,0.6 2.1,0 l 5.9,-6.1 c 1.5,0.8 2.6,1.4 4.6,1.9 v 8.6 c 0,0.8 0.7,1.4 1.5,1.4 L 331,471 c 0.9,0 1.4,-0.6 1.4,-1.5 z"
             id="path46"
             inkscape:connector-curvature="0"
             style="fill:#313140" /></g><path
           class="st0"
           d="m 324.5,447.5 c -6,0 -11,-4.9 -11,-11 0,-6.1 4.8,-11 10.9,-11.1 6,0 11,4.9 11,11 0,6.1 -4.8,11.1 -10.9,11.1 z"
           id="path50"
           inkscape:connector-curvature="0"
           style="fill:#ffffff" /></g></g></g><g
     id="g60"
     transform="matrix(1.6111996,0,0,1.6419796,88.198591,-293.56309)"><polygon
       class="st4"
       points="111.5,539.3 92.1,553.7 111.2,568.1 111.2,560.7 111.2,560.8 136.1,560.8 136.1,547.2 111.5,547.2 "
       id="polygon58"
       style="fill:#313140" /></g><polygon
     class="st2"
     points="351.2,347.3 372.2,328.4 390.5,328.4 390.5,273.7 311.9,273.7 311.9,328.4 351.2,328.4 "
     id="polygon62"
     transform="matrix(1.6111996,0,0,1.6419796,88.198591,-293.56309)"
     style="fill:#00bfd3" /><polygon
     class="st5"
     points="331.3,356.9 297.7,356.9 297.7,373.7 279.3,356.9 264.1,356.9 264.1,312.9 331.3,312.9 "
     id="polygon64"
     transform="matrix(1.6111996,0,0,1.6419796,14.578164,-304.66094)"
     style="fill:#ffca54" /></svg>