<?xml version="1.0" encoding="UTF-8" standalone="no"?>
<!-- Generator: Adobe Illustrator 19.0.0, SVG Export Plug-In . SVG Version: 6.00 Build 0)  -->

<svg
   xmlns:dc="http://purl.org/dc/elements/1.1/"
   xmlns:cc="http://creativecommons.org/ns#"
   xmlns:rdf="http://www.w3.org/1999/02/22-rdf-syntax-ns#"
   xmlns:svg="http://www.w3.org/2000/svg"
   xmlns="http://www.w3.org/2000/svg"
   xmlns:sodipodi="http://sodipodi.sourceforge.net/DTD/sodipodi-0.dtd"
   xmlns:inkscape="http://www.inkscape.org/namespaces/inkscape"
   version="1.1"
   id="Layer_1"
   x="0px"
   y="0px"
   viewBox="0 0 870 216.2"
   style="enable-background:new 0 0 870 216.2;"
   xml:space="preserve"
   sodipodi:docname="horizontal-logo.svg"
   inkscape:version="0.92.0 r15299"><metadata
     id="metadata269"><rdf:RDF><cc:Work
         rdf:about=""><dc:format>image/svg+xml</dc:format><dc:type
           rdf:resource="http://purl.org/dc/dcmitype/StillImage" /></cc:Work></rdf:RDF></metadata><defs
     id="defs267" /><sodipodi:namedview
     pagecolor="#ffffff"
     bordercolor="#666666"
     borderopacity="1"
     objecttolerance="10"
     gridtolerance="10"
     guidetolerance="10"
     inkscape:pageopacity="0"
     inkscape:pageshadow="2"
     inkscape:window-width="1920"
     inkscape:window-height="1017"
     id="namedview265"
     showgrid="false"
     inkscape:zoom="0.93305584"
     inkscape:cx="593.28863"
     inkscape:cy="9.3026695"
     inkscape:window-x="-8"
     inkscape:window-y="-8"
     inkscape:window-maximized="1"
     inkscape:current-layer="Layer_1" /><style
     type="text/css"
     id="style2">
	.st0{fill:#4AC0D3;}
	.st1{fill:#58595B;}
	.st2{fill:#FFFFFF;}
</style><g
     id="g44"><g
       id="g38"><g
         id="g14"><path
           class="st0"
           d="M372.8,126c-7.9,0.9-13.3-3.7-13.3-12.3V85.1h5.5v7.2h7.7v5.3H365v16.1c0,6,3.6,7.5,7.8,7.2V126z"
           id="path4" /><path
           class="st0"
           d="M379.2,87.2V83c0-1.5,1.2-2.7,2.8-2.7c1.6,0,2.8,1.2,2.8,2.7v4.2H379.2z M384.7,126h-5.6V92.3h5.6V126z"
           id="path6" /><path
           class="st0"
           d="M428.4,109.1c0,10-7.3,17.8-16.9,17.8c-9.4,0-17-7.6-17-17.8c0-10.1,7.5-17.6,16.8-17.6     c4.7,0,8.9,2.2,11.7,5.7V77.3h5.4V109.1z M411.5,96.6c-6.3,0-11.4,5.5-11.4,12.5c0,7.1,5.1,12.6,11.4,12.6     c6.2,0,11.4-5.6,11.4-12.6C422.9,102.1,417.7,96.6,411.5,96.6z"
           id="path8" /><path
           class="st0"
           d="M469.1,126h-5.4v-5.2c-2.6,3.7-6.9,6.1-11.7,6.1c-9.3,0-16.8-7.6-16.8-17.7c0-10.2,7.6-17.8,17-17.8     c9.6,0,16.9,7.8,16.9,17.8V126z M452.2,96.6c-6.3,0-11.4,5.6-11.4,12.6c0,7.1,5.1,12.5,11.4,12.5c6.2,0,11.4-5.6,11.4-12.5     C463.6,102.2,458.3,96.6,452.2,96.6z"
           id="path10" /><path
           class="st0"
           d="M478,77.3h5.5v36.2c0,6,3.7,7.5,7.9,7.3v5.2c-7.9,0.9-13.4-3.7-13.4-12.3V77.3z"
           id="path12" /></g><g
         id="g36"><path
           class="st1"
           d="M560.2,125.5h-5.6v-21.8c0-4.4-2.9-7.7-7.3-7.7c-4.5,0-7.3,3.3-7.3,7.7v21.8h-5.6v-21.8     c0-4.4-2.9-7.7-7.3-7.7c-4.5,0-7.3,3.3-7.3,7.7v21.8h-5.6v-21.6c0-7.3,5.3-13,12.9-13c4.6,0,8.1,2.2,10.1,5.6     c2-3.4,5.6-5.6,10.2-5.6c7.7,0,12.9,5.6,12.9,13V125.5z"
           id="path16" /><path
           class="st1"
           d="M569.4,86.7v-4.2c0-1.5,1.2-2.7,2.8-2.7c1.6,0,2.8,1.2,2.8,2.7v4.2H569.4z M575,125.5h-5.6V91.8h5.6V125.5z"
           id="path18" /><path
           class="st1"
           d="M616,124c0,10.8-6.9,18.1-17.4,18.1c-7.9,0-14.1-4.3-15.9-11.1h5.9c2.2,5,7.6,5.8,10,5.8     c8.7,0,11.9-6.7,11.9-12.8v-3.2c-2.6,3.5-6.7,5.6-11.5,5.6c-9.3,0-16.8-7.6-16.8-17.7c0-10.2,7.6-17.8,17-17.8     c9.6,0,16.9,7.8,16.9,17.8V124z M599.1,96.1c-6.3,0-11.4,5.6-11.4,12.6c0,7.1,5.1,12.5,11.4,12.5c6.2,0,11.4-5.6,11.4-12.5     C610.5,101.7,605.3,96.1,599.1,96.1z"
           id="path20" /><path
           class="st1"
           d="M639.6,91.1v5.2c-6.5-0.6-10.6,2.6-10.6,9v20.2h-5.5v-20C623.5,95.3,630.8,90.1,639.6,91.1z"
           id="path22" /><path
           class="st1"
           d="M676.9,125.5h-5.4v-5.2c-2.6,3.7-6.9,6.1-11.7,6.1c-9.3,0-16.8-7.6-16.8-17.7c0-10.2,7.6-17.8,17-17.8     c9.6,0,16.9,7.8,16.9,17.8V125.5z M660,96.1c-6.3,0-11.4,5.6-11.4,12.6c0,7.1,5.1,12.5,11.4,12.5c6.2,0,11.4-5.6,11.4-12.5     C671.4,101.7,666.1,96.1,660,96.1z"
           id="path24" /><path
           class="st1"
           d="M697.3,125.5c-7.9,0.9-13.3-3.7-13.3-12.3V84.6h5.5v7.2h7.7v5.3h-7.7v16.1c0,6,3.6,7.5,7.8,7.2V125.5z"
           id="path26" /><path
           class="st1"
           d="M703.7,86.7v-4.2c0-1.5,1.2-2.7,2.8-2.7c1.6,0,2.8,1.2,2.8,2.7v4.2H703.7z M709.2,125.5h-5.6V91.8h5.6V125.5     z"
           id="path28" /><path
           class="st1"
           d="M750.3,108.8c0,9.7-7.3,17.6-17,17.6c-9.6,0-17-7.9-17-17.6c0-9.8,7.4-17.8,17-17.8     C743,90.9,750.3,98.9,750.3,108.8z M744.7,108.8c0-6.9-5.1-12.5-11.4-12.5c-6.2,0-11.3,5.6-11.3,12.5c0,6.7,5.1,12.3,11.3,12.3     C739.6,121,744.7,115.5,744.7,108.8z"
           id="path30" /><path
           class="st1"
           d="M762.5,125.5H757V105c0-8.5,6-14.1,14.1-14.1s14,5.6,14,14.1v20.5h-5.5v-20.7c0-5-3.3-8.7-8.5-8.7     c-5.2,0-8.6,3.7-8.6,8.7V125.5z"
           id="path32" /><path
           class="st1"
           d="M814.5,97.2c-2.6-0.1-5,0.3-6.7,1.9c-1.5,1.5-2.6,3.7-2.6,9.5c0,6.7-1.2,10.5-4.2,13.4     c-2.6,2.5-6.4,3.7-10.6,3.5V120c2.9,0.1,5.4-0.7,6.8-2c1.4-1.4,2.5-3.5,2.5-9.4c0-6.7,1.2-10.6,4.2-13.5     c2.6-2.4,6.2-3.6,10.6-3.3V97.2z"
           id="path34" /></g></g><g
       id="g42"><path
         class="st0"
         d="M295.4,96.8c-3,0-8.3,1-9.4,1.2c-3.7-16.4-18.4-28.6-35.9-28.6c-6.1,0-11.8,1.5-16.9,4.1    c-0.3-0.8-12.8-29.2-49.1-29.2c-34.6,0-47.4,25.7-48.8,28.7c-4.8-2.3-10.2-3.6-15.9-3.6c-17.5,0-32.1,12.2-35.9,28.5l-0.2,0.1    c0,0-6.3-1.3-9.6-1.3c-20.5,0-37,16.6-37,37c0,15.4,9.3,28.5,22.6,34.1c4.7,2.1,9.8,3.3,15.2,3.3c19.4,0.6,38.9-24.1,38.9-24.1    c29.4-38.7,48.7-54.7,75.9-60.8c26.5-5.9,48.7,6.4,48.7,23.3c0,7.8-5.4,17-16,17c-3.6,0-9.8-2.8-11.2-8.6c1.2,1,2.7,1.5,4.3,1.5    c3.8,0,6.8-3.1,6.8-6.8c0-2.7-1.8-6.8-7.2-6.8c-12.6,0-23.7,21.9-14.7,43c0,0,0,0,0,0l0,0c5.7,13.4,19.1,22.9,34.6,22.9    c18.5,0,40.5-1,60.7-1s37-16.6,37-37C332.4,113.4,315.9,96.8,295.4,96.8z"
         id="path40" /></g></g></svg>