<?xml version="1.0" encoding="UTF-8" standalone="no"?>
<svg
   xmlns:dc="http://purl.org/dc/elements/1.1/"
   xmlns:cc="http://creativecommons.org/ns#"
   xmlns:rdf="http://www.w3.org/1999/02/22-rdf-syntax-ns#"
   xmlns:svg="http://www.w3.org/2000/svg"
   xmlns="http://www.w3.org/2000/svg"
   xmlns:sodipodi="http://sodipodi.sourceforge.net/DTD/sodipodi-0.dtd"
   xmlns:inkscape="http://www.inkscape.org/namespaces/inkscape"
   width="600"
   height="600"
   viewBox="0.501 0.498 182.598 182.65862"
   version="1.1"
   id="svg8"
   sodipodi:docname="logo-microsoft-azure.svg"
   inkscape:version="0.92.0 r15299">
  <metadata
     id="metadata14">
    <rdf:RDF>
      <cc:Work
         rdf:about="">
        <dc:format>image/svg+xml</dc:format>
        <dc:type
           rdf:resource="http://purl.org/dc/dcmitype/StillImage" />
        <dc:title></dc:title>
      </cc:Work>
    </rdf:RDF>
  </metadata>
  <defs
     id="defs12" />
  <sodipodi:namedview
     pagecolor="#ffffff"
     bordercolor="#666666"
     borderopacity="1"
     objecttolerance="10"
     gridtolerance="10"
     guidetolerance="10"
     inkscape:pageopacity="0"
     inkscape:pageshadow="2"
     inkscape:window-width="1920"
     inkscape:window-height="1017"
     id="namedview10"
     showgrid="false"
     inkscape:zoom="0.64940687"
     inkscape:cx="678.70104"
     inkscape:cy="2.0566301"
     inkscape:window-x="-8"
     inkscape:window-y="-8"
     inkscape:window-maximized="1"
     inkscape:current-layer="svg8" />
  <path
     d="m 14.365812,83.384018 8.931131,-1.227658 v 8.618254 h -8.930311 z m 8.931131,8.493468 v 8.520814 l -8.929903,-1.225802 -2.04e-4,-7.29459 h 8.93031 v -4.22e-4 z m 0.98755,-9.856595 11.883915,-1.633652 V 90.774614 H 24.284493 Z m 11.883915,9.856595 v 10.288504 l -11.883915,-1.63242 v -8.656084 z"
     id="path2"
     inkscape:connector-curvature="0"
     style="fill:#0dadea;stroke-width:0.20556854" />
  <g
     id="g6"
     style="fill:#00adef"
     transform="matrix(0.20556854,0,0,0.20556854,14.263026,80.285071)">
    <path
       d="M 204.703,84.786 H 194.66 V 45.955 c 0,-3.183 0.199,-7.07 0.596,-11.677 h -0.168 c -0.627,2.622 -1.18,4.504 -1.66,5.652 l -18.212,44.856 h -6.979 l -18.256,-44.52 c -0.51,-1.31 -1.05,-3.306 -1.616,-5.983 h -0.168 c 0.229,2.4 0.341,6.318 0.341,11.757 v 38.746 h -9.363 V 24.782 h 14.255 l 16.043,39.962 c 1.219,3.068 2.014,5.358 2.381,6.862 h 0.212 c 1.05,-3.153 1.9,-5.498 2.553,-7.032 l 16.342,-39.792 h 13.745 l -0.004,60.004 z M 223.555,32.94 c -1.616,0 -3.003,-0.514 -4.148,-1.547 -1.15,-1.032 -1.724,-2.345 -1.724,-3.934 0,-1.589 0.574,-2.915 1.724,-3.977 1.15,-1.058 2.532,-1.59 4.148,-1.59 1.672,0 3.094,0.532 4.256,1.59 1.162,1.062 1.746,2.383 1.746,3.977 0,1.504 -0.584,2.796 -1.746,3.87 -1.167,1.076 -2.584,1.611 -4.256,1.611 z m 4.891,51.846 h -9.869 v -42.85 h 9.87 v 42.85 z m 44.13,-1.967 c -3.487,1.98 -7.618,2.97 -12.384,2.97 -6.468,0 -11.688,-1.988 -15.66,-5.961 -3.97,-3.973 -5.958,-9.127 -5.958,-15.462 0,-7.058 2.135,-12.726 6.404,-17.01 4.27,-4.282 9.977,-6.424 17.128,-6.424 3.971,0 7.475,0.684 10.509,2.053 v 9.037 c -3.038,-2.23 -6.27,-3.348 -9.7,-3.348 -4.17,0 -7.588,1.39 -10.254,4.164 -2.666,2.775 -4.002,6.408 -4.002,10.899 0,4.436 1.253,7.937 3.764,10.503 2.51,2.567 5.88,3.85 10.107,3.85 3.547,0 6.891,-1.24 10.041,-3.722 z m 35.103,-31.634 c -1.193,-0.922 -2.908,-1.38 -5.15,-1.38 -2.922,0 -5.363,1.295 -7.32,3.891 -1.958,2.592 -2.938,6.123 -2.938,10.585 v 20.505 h -9.874 v -42.85 h 9.874 v 8.829 h 0.168 c 0.964,-3.013 2.446,-5.363 4.446,-7.05 2,-1.686 4.235,-2.532 6.702,-2.532 1.789,0 3.15,0.268 4.088,0.795 z m 26.383,34.604 c -6.723,0 -12.09,-2.001 -16.108,-6.004 -4.014,-4.002 -6.023,-9.31 -6.023,-15.92 0,-7.199 2.091,-12.82 6.278,-16.865 4.187,-4.045 9.821,-6.068 16.916,-6.068 6.81,0 12.112,1.968 15.914,5.902 3.803,3.935 5.7,9.386 5.7,16.359 0,6.837 -2.048,12.31 -6.149,16.422 -4.096,4.118 -9.605,6.174 -16.528,6.174 z m 0.467,-37.115 c -3.858,0 -6.909,1.326 -9.147,3.973 -2.243,2.651 -3.362,6.305 -3.362,10.962 0,4.491 1.136,8.027 3.405,10.606 2.268,2.579 5.306,3.87 9.108,3.87 3.89,0 6.875,-1.27 8.958,-3.806 2.082,-2.541 3.128,-6.153 3.128,-10.84 0,-4.712 -1.041,-8.353 -3.128,-10.92 -2.087,-2.562 -5.073,-3.845 -8.962,-3.845 z m 29.577,34.774 v -8.995 c 3.69,2.762 7.76,4.142 12.21,4.142 5.96,0 8.936,-1.729 8.936,-5.188 0,-0.977 -0.254,-1.805 -0.764,-2.49 -0.51,-0.684 -1.197,-1.291 -2.066,-1.818 -0.869,-0.527 -1.888,-1.003 -3.063,-1.423 -1.18,-0.421 -2.49,-0.893 -3.937,-1.424 a 41.822,41.822 0 0 1 -4.83,-2.218 c -1.435,-0.782 -2.623,-1.665 -3.574,-2.655 a 9.937,9.937 0 0 1 -2.147,-3.37 c -0.484,-1.253 -0.722,-2.72 -0.722,-4.393 0,-2.065 0.497,-3.884 1.49,-5.46 0.995,-1.577 2.325,-2.902 3.998,-3.973 1.676,-1.075 3.573,-1.882 5.703,-2.426 a 26.507,26.507 0 0 1 6.594,-0.816 c 4.027,0 7.63,0.599 10.807,1.797 v 8.494 c -3.064,-2.065 -6.581,-3.098 -10.552,-3.098 -1.249,0 -2.377,0.128 -3.383,0.374 -1.007,0.251 -1.867,0.6 -2.576,1.046 -0.708,0.446 -1.261,0.981 -1.659,1.61 a 3.793,3.793 0 0 0 -0.596,2.07 c 0,0.921 0.199,1.703 0.596,2.345 0.398,0.641 0.985,1.206 1.767,1.695 0.778,0.489 1.716,0.935 2.809,1.338 1.093,0.404 2.346,0.846 3.768,1.318 a 55.287,55.287 0 0 1 5.042,2.303 c 1.491,0.781 2.761,1.665 3.811,2.655 a 10.36,10.36 0 0 1 2.424,3.433 c 0.567,1.296 0.852,2.839 0.852,4.623 0,2.176 -0.51,4.07 -1.534,5.69 -1.02,1.619 -2.385,2.957 -4.083,4.015 -1.703,1.062 -3.669,1.848 -5.894,2.362 -2.23,0.519 -4.576,0.774 -7.043,0.774 -4.77,0.004 -8.897,-0.774 -12.384,-2.337 z m 59.659,2.341 c -6.723,0 -12.094,-2.001 -16.109,-6.004 -4.014,-4.002 -6.019,-9.31 -6.019,-15.92 0,-7.199 2.092,-12.82 6.279,-16.865 4.182,-4.045 9.821,-6.068 16.912,-6.068 6.81,0 12.111,1.968 15.914,5.902 3.802,3.935 5.703,9.386 5.703,16.359 0,6.837 -2.048,12.31 -6.148,16.422 -4.1,4.118 -9.614,6.174 -16.532,6.174 z m 0.467,-37.115 c -3.859,0 -6.91,1.326 -9.152,3.973 -2.243,2.651 -3.362,6.305 -3.362,10.962 0,4.491 1.137,8.027 3.405,10.606 2.269,2.579 5.306,3.87 9.109,3.87 3.884,0 6.87,-1.27 8.957,-3.806 2.087,-2.541 3.128,-6.153 3.128,-10.84 0,-4.712 -1.041,-8.353 -3.128,-10.92 -2.087,-2.562 -5.073,-3.845 -8.957,-3.845 z M 481.168,29.26 c -1.33,-0.752 -2.851,-1.13 -4.554,-1.13 -4.796,0 -7.19,2.664 -7.19,7.992 v 5.817 h 10.128 v 7.615 h -10.085 v 35.232 h -9.873 V 49.554 h -7.445 v -7.615 h 7.445 v -6.947 c 0,-4.52 1.504,-8.081 4.511,-10.69 3.007,-2.61 6.767,-3.914 11.278,-3.914 2.441,0 4.368,0.264 5.785,0.795 z m 28.467,55.067 c -1.927,0.948 -4.468,1.424 -7.618,1.424 -8.452,0 -12.678,-3.99 -12.678,-11.965 V 49.558 h -7.276 v -7.614 h 7.276 v -9.918 l 9.874,-2.761 v 12.679 h 10.426 v 7.614 H 499.213 V 70.98 c 0,2.537 0.466,4.351 1.404,5.439 0.938,1.088 2.497,1.632 4.68,1.632 1.672,0 3.12,-0.472 4.338,-1.424 z m 83.744,0.459 h -11.105 l -5.488,-15.275 h -23.998 l -5.276,15.275 h -11.066 l 22.849,-60.004 h 11.403 l 22.68,60.004 z m -19.276,-23.39 -8.465,-23.935 c -0.255,-0.782 -0.527,-2.035 -0.808,-3.765 h -0.168 c -0.255,1.59 -0.54,2.847 -0.852,3.765 l -8.382,23.935 z M 632.867,45.997 609.336,77.21 h 23.445 v 7.576 h -37.277 v -3.641 l 24.042,-31.634 h -21.743 v -7.576 h 35.064 z m 46.338,38.789 h -9.869 v -6.781 h -0.168 c -2.865,5.188 -7.32,7.784 -13.36,7.784 -10.298,0 -15.448,-6.08 -15.448,-18.245 V 41.935 h 9.873 v 24.606 c 0,7.7 3.02,11.549 9.066,11.549 2.92,0 5.323,-1.058 7.211,-3.178 1.888,-2.12 2.83,-4.895 2.83,-8.328 V 41.935 h 9.874 z m 38.171,-33.601 c -1.192,-0.922 -2.908,-1.38 -5.15,-1.38 -2.921,0 -5.363,1.295 -7.32,3.891 -1.957,2.592 -2.938,6.123 -2.938,10.585 v 20.505 h -9.87 v -42.85 h 9.87 v 8.829 h 0.168 c 0.964,-3.013 2.446,-5.363 4.446,-7.05 2.001,-1.686 4.235,-2.532 6.702,-2.532 1.785,0 3.15,0.268 4.083,0.795 l 0.01,9.207 z m 43.957,14.812 H 731.63 c 0.112,3.96 1.352,7.015 3.724,9.165 2.368,2.146 5.622,3.221 9.766,3.221 4.653,0 8.922,-1.368 12.807,-4.1 v 7.822 c -3.97,2.456 -9.22,3.684 -15.745,3.684 -6.413,0 -11.438,-1.946 -15.085,-5.838 -3.647,-3.892 -5.466,-9.365 -5.466,-16.422 0,-6.667 2.005,-12.102 6.024,-16.3 4.014,-4.198 9,-6.297 14.959,-6.297 5.958,0 10.564,1.883 13.827,5.647 3.262,3.765 4.895,8.995 4.895,15.692 l -0.004,3.726 z m -9.532,-6.862 c -0.043,-3.488 -0.864,-6.2 -2.51,-8.137 -1.647,-1.937 -3.915,-2.906 -6.81,-2.906 -2.835,0 -5.242,1.02 -7.212,3.055 -1.97,2.035 -3.184,4.7 -3.638,7.992 h 20.17 z"
       id="path4"
       inkscape:connector-curvature="0" />
  </g>
</svg>
