<?xml version="1.0" encoding="UTF-8" standalone="no"?>
<svg
   xmlns:dc="http://purl.org/dc/elements/1.1/"
   xmlns:cc="http://creativecommons.org/ns#"
   xmlns:rdf="http://www.w3.org/1999/02/22-rdf-syntax-ns#"
   xmlns:svg="http://www.w3.org/2000/svg"
   xmlns="http://www.w3.org/2000/svg"
   xmlns:sodipodi="http://sodipodi.sourceforge.net/DTD/sodipodi-0.dtd"
   xmlns:inkscape="http://www.inkscape.org/namespaces/inkscape"
   width="2500"
   height="2500"
   viewBox="0 0 192.756 192.756"
   version="1.1"
   id="svg18"
   sodipodi:docname="logo-red-hat.svg"
   inkscape:version="0.92.0 r15299">
  <metadata
     id="metadata24">
    <rdf:RDF>
      <cc:Work
         rdf:about="">
        <dc:format>image/svg+xml</dc:format>
        <dc:type
           rdf:resource="http://purl.org/dc/dcmitype/StillImage" />
      </cc:Work>
    </rdf:RDF>
  </metadata>
  <defs
     id="defs22" />
  <sodipodi:namedview
     pagecolor="#ffffff"
     bordercolor="#666666"
     borderopacity="1"
     objecttolerance="10"
     gridtolerance="10"
     guidetolerance="10"
     inkscape:pageopacity="0"
     inkscape:pageshadow="2"
     inkscape:window-width="1920"
     inkscape:window-height="1017"
     id="namedview20"
     showgrid="false"
     inkscape:zoom="0.26700352"
     inkscape:cx="1207.6643"
     inkscape:cy="1169.6928"
     inkscape:window-x="-8"
     inkscape:window-y="-8"
     inkscape:window-maximized="1"
     inkscape:current-layer="g16" />
  <g
     id="g16"
     clip-rule="evenodd"
     fill-rule="evenodd">
    <path
       d="m 67.267718,103.91438 a 13.263988,13.263988 0 0 0 -2.968983,-0.35589 c -1.738296,0 -3.320032,0.30263 -4.486966,0.78684 a 0.3994691,0.3994691 0 0 0 -0.2187,0.35347 c 0,0.0533 0.01453,0.11056 0.03551,0.15736 0.137998,0.40028 -0.08958,0.83526 -1.218583,1.08301 -1.673735,0.36719 -2.731723,2.09499 -3.336172,2.66877 -0.70936,0.67466 -2.713969,1.08785 -2.413762,0.68596 0.235647,-0.31393 1.139496,-1.29444 1.688262,-2.35324 0.491468,-0.94581 0.928059,-1.21535 1.530894,-2.11839 0.175928,-0.26632 0.860271,-1.19599 1.059602,-1.93279 0.225155,-0.72066 0.149297,-1.62208 0.235647,-1.99411 0.121051,-0.53424 0.628659,-1.69795 0.664974,-2.354855 0.0226,-0.368803 -1.548648,0.531012 -2.294324,0.531012 -0.745676,0 -1.47279,-0.446276 -2.138572,-0.479363 -0.823956,-0.03954 -1.35416,0.636729 -2.10145,0.518906 -0.424486,-0.0694 -0.784412,-0.443048 -1.528473,-0.471293 -1.059601,-0.03954 -2.355657,0.589116 -4.788787,0.510836 -2.393586,-0.07747 -4.603175,-3.023054 -4.904996,-3.492733 -0.35347,-0.55038 -0.786833,-0.55038 -1.256512,-0.119437 -0.471293,0.431749 -1.051532,0.09442 -1.216969,-0.193682 -0.313926,-0.55038 -1.154828,-2.15794 -2.453305,-2.492042 -1.797207,-0.466451 -2.706706,0.99262 -2.590496,2.15794 0.121051,1.179039 0.883674,1.509913 1.236336,2.136958 0.35347,0.628661 0.535047,1.033779 1.198408,1.31139 0.471292,0.195296 0.64722,0.487433 0.506801,0.874797 -0.124279,0.335716 -0.613326,0.413189 -0.936937,0.428522 -0.68515,0.03309 -1.163706,-0.152525 -1.514754,-0.378487 -0.406733,-0.258243 -0.737606,-0.619783 -1.09269,-1.230688 -0.410767,-0.676274 -1.059601,-0.970832 -1.81254,-0.970832 -0.359926,0 -0.697255,0.09603 -0.995041,0.250979 a 8.9360028,8.9360028 0 0 1 -4.106057,0.978903 H 23.34226 a 24.542736,24.542736 0 0 1 -1.282336,-7.85542 c 0,-13.572266 11.002749,-24.575017 24.576628,-24.575017 13.573072,0 24.575016,11.002751 24.575016,24.575017 a 24.478175,24.478175 0 0 1 -3.94385,13.357599 z"
       id="path4"
       inkscape:connector-curvature="0"
       style="fill:#020002;stroke-width:0.80700827" />
    <path
       d="m 52.047542,101.66041 c 0.127507,0.12266 0.345399,0.53585 0.07909,1.06364 a 2.0901515,2.0901515 0 0 1 -0.5988,0.70451 c -0.344593,0.27762 -1.020059,0.59558 -1.948118,0.01 -0.497117,-0.31716 -0.526976,-0.42207 -1.215354,-0.3341 -0.492275,0.0646 -0.686764,-0.43014 -0.510836,-0.84494 0.177541,-0.40996 0.901428,-0.74245 1.806083,-0.21466 0.405119,0.23806 1.03862,0.74244 1.592228,0.29617 0.231611,-0.18561 0.367996,-0.30747 0.686764,-0.67628 a 0.08070083,0.08070083 0 0 1 0.0581,-0.025 0.08070083,0.08070083 0 0 1 0.05084,0.021 z"
       id="path6"
       inkscape:connector-curvature="0"
       style="fill:#020002;stroke-width:0.80700827" />
    <path
       d="m 60.504182,84.015978 c -0.24291,0.818307 -0.588309,1.860154 -2.124046,2.650216 -0.224348,0.113788 -0.309084,-0.07344 -0.207401,-0.250173 0.58266,-0.987778 0.684343,-1.234723 0.853815,-1.624508 0.235646,-0.569748 0.359118,-1.379177 -0.110561,-3.070666 -0.923217,-3.324874 -2.852774,-7.770683 -4.25374,-9.213614 -1.353353,-1.391282 -3.802623,-1.782681 -6.018667,-1.215354 -0.816693,0.209015 -2.411341,1.040233 -5.371447,0.372837 -5.123696,-1.153214 -5.88067,1.411458 -6.175228,2.528357 -0.294558,1.117707 -1.00069,4.294092 -1.00069,4.294092 -0.23484,1.292827 -0.543117,3.541152 7.410757,5.05752 3.705782,0.705326 3.893815,1.664052 4.057638,2.350816 0.292944,1.235529 0.762623,1.942469 1.294441,2.295131 0.52859,0.35347 0,0.6448 -0.588309,0.704518 -1.577701,0.163823 -7.40995,-1.509105 -10.859911,-3.468521 -2.823722,-1.725384 -2.870528,-3.278875 -2.223307,-4.596719 -4.265039,-0.459995 -7.464827,0.400276 -8.045066,2.41941 -0.996654,3.46368 7.616544,9.382279 17.424116,12.350455 10.290969,3.119089 20.876497,0.942586 22.052308,-5.528006 0.535853,-2.939125 -1.940855,-5.113205 -6.114702,-6.055791 z"
       id="path8"
       inkscape:connector-curvature="0"
       style="fill:#c1342c;stroke-width:0.80700827" />
    <path
       d="m 70.298034,102.84268 h 0.166244 l 0.249366,0.41157 h 0.161401 l -0.271961,-0.41964 c 0.141226,-0.0145 0.247751,-0.0896 0.247751,-0.25825 0,-0.18722 -0.111367,-0.27115 -0.334908,-0.27115 h -0.36154 v 0.94904 h 0.143647 z m 0,-0.12105 v -0.29456 h 0.197717 c 0.100069,0 0.204981,0.0218 0.204981,0.1388 0,0.14688 -0.10814,0.15576 -0.230805,0.15576 z"
       id="path10"
       inkscape:connector-curvature="0"
       style="fill:#020002;stroke-width:0.80700827" />
    <path
       d="m 71.397987,102.78134 a 0.92886654,0.92886654 0 1 1 -0.930481,-0.92806 0.92644552,0.92644552 0 0 1 0.930481,0.92806 z m -0.930481,-0.76423 a 0.76423685,0.76423685 0 0 0 0,1.52686 c 0.420451,0 0.766658,-0.33895 0.766658,-0.76263 0,-0.42368 -0.347014,-0.76423 -0.766658,-0.76423 z M 44.723135,77.680963 c -2.838248,0.205787 -3.133613,0.512451 -3.665431,1.07897 -0.749711,0.798132 -1.736682,-1.036198 -1.736682,-1.036198 -0.593151,-0.125087 -1.311388,-1.080584 -0.924832,-1.972329 0.382522,-0.88206 1.087848,-0.618168 1.308968,-0.344592 0.268734,0.334908 0.84171,0.88206 1.587385,0.862692 0.744062,-0.01775 1.60514,-0.175121 2.804354,-0.175121 1.213741,0 2.032047,0.453539 2.078046,0.84171 0.03954,0.333294 -0.09846,0.64722 -1.451808,0.744868 z m 2.981896,-4.689525 h -0.0121 c -0.04438,0 -0.07989,-0.03309 -0.07989,-0.07425 0,-0.02905 0.01856,-0.05488 0.04519,-0.06698 0.549572,-0.290523 1.371107,-0.522135 2.309657,-0.618976 a 9.1248427,9.1248427 0 0 1 0.964374,-0.04438 c 1.574474,0.03551 2.836635,0.661747 2.818073,1.397738 -0.01937,0.735992 -1.309774,1.304933 -2.886668,1.270231 a 5.5336558,5.5336558 0 0 1 -1.398546,-0.205787 c -0.05003,-0.01211 -0.08554,-0.05246 -0.08554,-0.100876 0,-0.05003 0.03551,-0.09281 0.08554,-0.104104 0.982936,-0.226769 1.64549,-0.5988 1.597877,-0.951463 -0.06133,-0.465644 -1.346897,-0.718237 -2.871335,-0.565713 -0.166244,0.01856 -0.329259,0.04035 -0.486626,0.06456 z M 84.11563,93.089173 c 0,-2.206361 -0.046,-3.830062 -0.135577,-5.297203 h 3.608941 l 0.155753,3.130385 h 0.116209 c 0.811043,-2.320149 2.734951,-3.50403 4.513597,-3.50403 0.405925,0 0.643186,0.01614 0.977287,0.08958 v 3.924482 A 6.2922436,6.2922436 0 0 0 92.095328,91.31537 c -1.986047,0 -3.36361,1.263775 -3.735641,3.152175 a 6.8466583,6.8466583 0 0 0 -0.108946,1.25974 v 8.546215 h -4.169812 z m 14.265497,4.066514 c 0.112178,2.983513 2.422683,4.291673 5.093073,4.291673 1.91503,0 3.28613,-0.2994 4.54587,-0.76424 l 0.61979,2.87053 c -1.41227,0.59557 -3.36846,1.04508 -5.76285,1.04508 -5.349709,0 -8.485743,-3.30551 -8.485743,-8.356576 0,-4.55072 2.759161,-8.853688 8.061253,-8.853688 5.35935,0 7.1041,4.407072 7.1041,8.01682 0,0.773921 -0.0662,1.396125 -0.15011,1.779454 z m 7.251013,-2.904423 c 0.0186,-1.527666 -0.64642,-4.01648 -3.43786,-4.01648 -2.566285,0 -3.633182,2.328219 -3.818802,4.01648 z m 52.62259,6.162316 c 0,1.28637 0.05,2.61632 0.23645,3.85992 h -1.48167 l -0.23484,-2.32822 h -0.0775 c -0.78845,1.25329 -2.59937,2.70025 -5.18261,2.70025 -3.26919,0 -4.7904,-2.3032 -4.7904,-4.4684 0,-3.749364 3.31035,-6.009794 9.92217,-5.94362 v -0.431749 c 0,-1.605947 -0.31393,-4.815419 -4.15771,-4.788787 -1.42195,0 -2.90361,0.380101 -4.07942,1.210512 l -0.51245,-1.169355 c 1.4865,-1.005532 3.29743,-1.404194 4.7678,-1.404194 4.69033,0 5.58934,3.519363 5.58934,6.422979 v 6.340664 z m -1.60837,-4.82591 c -3.53873,-0.10249 -8.21373,0.434978 -8.21373,4.337671 0,2.334679 1.54138,3.383789 3.23449,3.383789 2.70912,0 4.24809,-1.67697 4.80735,-3.2579 0.12105,-0.348623 0.17189,-0.696443 0.17189,-0.974054 z m 8.2331,-11.147205 v 3.581502 h 4.63223 V 89.3269 h -4.63223 v 10.562126 c 0,2.066744 0.64318,3.360384 2.38794,3.360384 0.83686,0 1.42921,-0.10895 1.84562,-0.2534 l 0.1953,1.24521 c -0.52617,0.22031 -1.26378,0.38898 -2.24268,0.38898 -1.18872,0 -2.16924,-0.37203 -2.80435,-1.15079 -0.73599,-0.85624 -0.9902,-2.21766 -0.9902,-3.877679 V 89.3269 h -2.7406 v -1.304933 h 2.7406 v -2.988351 z m -26.47068,3.209472 a 6.1929816,6.1929816 0 0 0 -3.27403,0.931287 5.93716,5.93716 0 0 0 -2.21928,2.343552 h -0.0678 v -8.04103 l -1.60756,-0.438206 v 21.82796 h 1.60756 V 94.336 c 0,-0.660132 0.05,-1.117706 0.22032,-1.601104 0.69322,-2.020749 2.59776,-3.680765 4.90177,-3.680765 3.32568,0 4.47809,2.670391 4.47809,5.595796 v 9.624383 h 1.60756 v -9.801118 c 8e-4,-6.054176 -4.10687,-6.823255 -5.64664,-6.823255 z m -10.89623,-6.213964 -4.16577,-1.128198 v 9.258806 h -0.0678 c -0.73761,-1.216968 -2.36292,-2.148256 -4.62013,-2.148256 -3.96241,0 -7.41559,3.279682 -7.38896,8.802847 0,5.067208 3.11747,8.424358 7.05325,8.424358 2.37825,0 4.36753,-1.13465 5.35127,-2.98028 h 0.0759 l 0.18723,2.60825 h 3.71223 a 76.34137,76.34137 0 0 1 -0.13719,-4.623348 z m -4.16577,15.689855 c 0,0.438206 -0.0315,0.846553 -0.1259,1.21697 -0.42045,1.804472 -1.89485,2.966562 -3.59845,2.966562 -2.62439,0 -4.12623,-2.212816 -4.12623,-5.240713 0,-3.057754 1.48974,-5.423903 4.17385,-5.423903 1.87387,0 3.2135,1.322687 3.58392,2.925405 0.071,0.338944 0.0928,0.75536 0.0928,1.087848 z m 48.37449,6.422982 h 0.20014 l 0.2994,0.49469 h 0.19207 l -0.3228,-0.50115 c 0.16705,-0.0218 0.29455,-0.10894 0.29455,-0.31392 0,-0.22354 -0.13234,-0.32281 -0.4035,-0.32281 H 171.551 v 1.13788 h 0.17027 z m 0,-0.14526 v -0.35186 h 0.23646 c 0.11782,0 0.24775,0.025 0.24775,0.16544 0,0.17512 -0.12912,0.18561 -0.276,0.18561 h -0.20821 z"
       id="path12"
       inkscape:connector-curvature="0"
       style="fill:#020002;stroke-width:0.80700827" />
    <path
       d="m 173.04073,103.47618 a 1.1144784,1.1144784 0 1 1 -2.22895,0 1.1152855,1.1152855 0 0 1 2.22895,0 z m -1.11448,-0.91757 a 0.91757,0.91757 0 1 0 0,1.83514 c 0.506,0 0.91434,-0.41158 0.91434,-0.91757 0,-0.50761 -0.40834,-0.91757 -0.91434,-0.91757 z"
       id="path14"
       inkscape:connector-curvature="0"
       style="fill:#020002;stroke-width:0.80700827" />
  </g>
</svg>
