<?xml version="1.0" encoding="UTF-8" standalone="no"?>
<svg
   xmlns:dc="http://purl.org/dc/elements/1.1/"
   xmlns:cc="http://creativecommons.org/ns#"
   xmlns:rdf="http://www.w3.org/1999/02/22-rdf-syntax-ns#"
   xmlns:svg="http://www.w3.org/2000/svg"
   xmlns="http://www.w3.org/2000/svg"
   xmlns:sodipodi="http://sodipodi.sourceforge.net/DTD/sodipodi-0.dtd"
   xmlns:inkscape="http://www.inkscape.org/namespaces/inkscape"
   width="600"
   height="600"
   viewBox="1.578 2.062 28.04256 28.035144"
   version="1.1"
   id="svg8"
   sodipodi:docname="logo-amazon-web-services.svg"
   inkscape:version="0.92.0 r15299">
  <metadata
     id="metadata14">
    <rdf:RDF>
      <cc:Work
         rdf:about="">
        <dc:format>image/svg+xml</dc:format>
        <dc:type
           rdf:resource="http://purl.org/dc/dcmitype/StillImage" />
        <dc:title></dc:title>
      </cc:Work>
    </rdf:RDF>
  </metadata>
  <defs
     id="defs12" />
  <sodipodi:namedview
     pagecolor="#ffffff"
     bordercolor="#666666"
     borderopacity="1"
     objecttolerance="10"
     gridtolerance="10"
     guidetolerance="10"
     inkscape:pageopacity="0"
     inkscape:pageshadow="2"
     inkscape:window-width="1920"
     inkscape:window-height="1017"
     id="namedview10"
     showgrid="false"
     inkscape:zoom="0.64940687"
     inkscape:cx="506.08252"
     inkscape:cy="152.52053"
     inkscape:window-x="-8"
     inkscape:window-y="-8"
     inkscape:window-maximized="1"
     inkscape:current-layer="svg8" />
  <path
     d="m 11.835678,15.000653 c -0.414369,0 -0.876934,0.159624 -0.973868,0.685059 -0.01033,0.0558 0.02663,0.08244 0.06233,0.09059 l 0.424697,0.05092 c 0.03932,-0.002 0.06595,-0.04476 0.07356,-0.08498 0.03624,-0.180823 0.184991,-0.266161 0.351137,-0.266161 0.08969,0 0.190425,0.0308 0.243512,0.11324 0.06087,0.09186 0.05653,0.216698 0.05653,0.322691 v 0.06233 c -0.25239,0.02899 -0.584683,0.04656 -0.820948,0.152921 -0.272683,0.121211 -0.464196,0.367804 -0.464196,0.730355 0,0.464558 0.284641,0.696474 0.651179,0.696474 0.309463,0 0.480502,-0.07265 0.719122,-0.322689 0.07918,0.11777 0.104544,0.171219 0.249129,0.294425 a 0.08714989,0.08714989 0 0 0 0.101826,-0.01123 v 0.0056 c 0.08697,-0.07936 0.245143,-0.223582 0.334105,-0.300042 0.03551,-0.02971 0.02772,-0.07863 0,-0.118857 -0.07954,-0.112697 -0.164154,-0.203652 -0.164154,-0.413283 V 15.99154 c 0,-0.294969 0.02501,-0.566928 -0.186802,-0.770036 C 12.325604,15.05717 12.047304,15.00064 11.83568,15.00064 Z m 5.707322,0 c -0.414551,0 -0.876753,0.159624 -0.973869,0.685059 -0.01033,0.0558 0.02645,0.08244 0.06233,0.09059 l 0.424696,0.05092 c 0.03932,-0.002 0.06613,-0.04476 0.07357,-0.08498 0.03642,-0.180823 0.184989,-0.266161 0.351136,-0.266161 0.08987,0 0.190425,0.0308 0.243512,0.11324 0.0607,0.09186 0.05092,0.216698 0.05092,0.322691 v 0.06233 c -0.252391,0.02899 -0.578886,0.04656 -0.815332,0.152921 -0.272865,0.121211 -0.464196,0.367804 -0.464196,0.730355 0,0.464558 0.284823,0.696474 0.651178,0.696474 0.309102,0 0.48014,-0.07265 0.719123,-0.322689 0.079,0.11777 0.104544,0.171219 0.249129,0.294425 0.03261,0.01739 0.07302,0.01558 0.101826,-0.01123 v 0.0056 c 0.08697,-0.07936 0.245143,-0.223582 0.334105,-0.300042 0.03533,-0.02971 0.02717,-0.07863 0,-0.118857 -0.07954,-0.112672 -0.164154,-0.203626 -0.164154,-0.413257 v -0.696477 c 0,-0.294969 0.01903,-0.566927 -0.192418,-0.770036 -0.167421,-0.164334 -0.439923,-0.220863 -0.651547,-0.220863 z m -3.210414,0.02265 c -0.267791,0 -0.466369,0.135163 -0.571819,0.424696 h -0.0056 v -0.300042 a 0.08551923,0.08551923 0 0 0 -0.07936,-0.07936 h -0.407698 a 0.08624396,0.08624396 0 0 0 -0.08498,0.08498 v 2.293075 a 0.08805581,0.08805581 0 0 0 0.07936,0.07936 h 0.435931 a 0.0858816,0.0858816 0 0 0 0.08498,-0.08498 V 16.22365 c 0,-0.265436 -0.01286,-0.628531 0.300042,-0.628531 0.308921,0 0.266161,0.37306 0.266161,0.628531 v 1.217381 c 0,0.0433 0.03533,0.08208 0.07936,0.08498 h 0.43593 a 0.0858816,0.0858816 0 0 0 0.08498,-0.08498 V 16.22365 c 0,-0.130272 -0.0053,-0.319972 0.03968,-0.435931 0.04476,-0.115958 0.154732,-0.192418 0.260544,-0.192418 0.126104,0 0.222313,0.04402 0.254746,0.198216 0.02029,0.09168 0.01123,0.333924 0.01123,0.430314 v 1.21738 c 0,0.0433 0.03533,0.08208 0.07936,0.08498 h 0.435931 a 0.0858816,0.0858816 0 0 0 0.08498,-0.08498 v -1.449477 c 0,-0.246231 0.02483,-0.525799 -0.113241,-0.719124 -0.121937,-0.173574 -0.321241,-0.249128 -0.503875,-0.249128 -0.256195,0 -0.494453,0.135164 -0.600084,0.424697 -0.122119,-0.289533 -0.294244,-0.424878 -0.566565,-0.424878 z m 7.411727,0 c -0.629979,0 -0.979485,0.553882 -0.979485,1.268292 0,0.70952 0.3457,1.279528 0.979485,1.279528 0.609687,0 0.996517,-0.556962 0.996517,-1.25706 0,-0.723472 -0.350412,-1.29076 -0.996517,-1.29076 z m 2.485493,0 c -0.300948,0 -0.472892,0.150564 -0.594467,0.464195 h -0.0056 v -0.351136 c -0.0078,-0.03551 -0.04131,-0.06015 -0.07936,-0.06233 H 23.14833 a 0.08370738,0.08370738 0 0 0 -0.08498,0.07356 v 2.293074 a 0.08696871,0.08696871 0 0 0 0.07936,0.08498 h 0.430314 a 0.08624396,0.08624396 0 0 0 0.08495,-0.08498 v -1.234231 c 0,-0.154732 0.01304,-0.295875 0.07356,-0.43593 0.04892,-0.111067 0.143317,-0.181185 0.249129,-0.181185 0.300405,0 0.271777,0.366174 0.271777,0.617115 v 1.245646 a 0.0858816,0.0858816 0 0 0 0.07936,0.07356 h 0.435931 c 0.04276,0 0.0799,-0.03261 0.08498,-0.07356 v -1.443862 c 0,-0.221951 5.44e-4,-0.530328 -0.11324,-0.713506 -0.121938,-0.197672 -0.314899,-0.271415 -0.509673,-0.271415 z m -5.231711,0.03968 c -0.04421,0 -0.07918,0.03515 -0.07936,0.08498 v 0.328307 c 1.81e-4,0.0491 0.03406,0.08461 0.07936,0.08498 h 0.747387 l -0.855011,1.262677 c -0.05218,0.08135 -0.05653,0.173575 -0.05653,0.226481 v 0.334105 c 0,0.0482 0.05236,0.100557 0.101826,0.07356 0.487206,-0.265979 1.071165,-0.242424 1.511806,-0.0056 0.05345,0.02917 0.107624,-0.02555 0.107624,-0.07356 v -0.351134 a 0.14893391,0.14893391 0 0 0 -0.07936,-0.124655 c -0.250039,-0.143901 -0.540297,-0.18793 -0.815335,-0.181226 l 0.74177,-1.087109 c 0.06867,-0.09766 0.10708,-0.156543 0.107624,-0.203832 v -0.283011 c 0,-0.04874 -0.03334,-0.08498 -0.07936,-0.08498 z m 2.746218,0.430314 c 0.138063,0 0.239889,0.06161 0.288809,0.220864 0.05653,0.183541 0.06233,0.412739 0.06233,0.605882 0,0.294244 -0.01377,0.781269 -0.351137,0.781269 -0.341171,0 -0.339721,-0.602983 -0.339721,-0.883276 0,-0.279568 0.01866,-0.724739 0.339721,-0.724739 z m -9.676537,0.83798 v 0.09621 c 0,0.174118 0.0063,0.320697 -0.07936,0.47561 -0.06921,0.125924 -0.177924,0.203832 -0.300042,0.203832 -0.16669,0 -0.26616,-0.135163 -0.26616,-0.328306 1.8e-4,-0.380851 0.331024,-0.447345 0.64556,-0.447345 z m 5.707321,0 v 0.09621 c 0,0.174118 0.0063,0.320697 -0.07936,0.47561 -0.06921,0.125924 -0.177379,0.203832 -0.300042,0.203832 -0.166871,0 -0.26616,-0.135163 -0.26616,-0.328306 1.81e-4,-0.380851 0.330662,-0.447345 0.645561,-0.447345 z"
     id="path2"
     inkscape:connector-curvature="0"
     style="fill:#201c1d;stroke-width:0.18118481" />
  <path
     d="m 20.600493,17.599567 v 0.328307 h 0.220865 v -0.328307 z m -6.403796,0.05653 v 2.338372 h 0.203833 v -0.20945 c 0.04348,0.08298 0.09295,0.145129 0.152921,0.186801 0.05979,0.04167 0.12846,0.06233 0.203833,0.06233 0.149658,0 0.278843,-0.07646 0.390634,-0.232098 0.111791,-0.155637 0.169951,-0.381212 0.169951,-0.668209 0,-0.187889 -0.02409,-0.343527 -0.07356,-0.47561 -0.04946,-0.131722 -0.115597,-0.229743 -0.198217,-0.294426 -0.08262,-0.06469 -0.176473,-0.101825 -0.277393,-0.101825 a 0.36236961,0.36236961 0 0 0 -0.198217,0.05653 c -0.05889,0.03769 -0.106536,0.09911 -0.15292,0.175569 v -0.83798 z m 2.095041,0.549353 c -0.153645,0 -0.275583,0.04548 -0.36237,0.135888 -0.08679,0.09023 -0.130272,0.206732 -0.130272,0.351136 0,0.08389 0.01885,0.154732 0.05091,0.220865 0.03207,0.06613 0.07827,0.119219 0.135889,0.158537 0.05798,0.03932 0.173574,0.09095 0.345338,0.147122 0.118857,0.03823 0.189882,0.07085 0.220864,0.09621 0.04494,0.03714 0.06795,0.08588 0.06795,0.152921 0,0.07755 -0.02681,0.14223 -0.07936,0.192418 -0.05236,0.05055 -0.125199,0.07356 -0.220864,0.07356 -0.09567,0 -0.174482,-0.02681 -0.232099,-0.08498 -0.05762,-0.05816 -0.08878,-0.146578 -0.101825,-0.26616 l -0.220864,0.0453 c 0.04982,0.363276 0.23101,0.543736 0.543554,0.543555 0.16669,0 0.294244,-0.04729 0.390634,-0.147122 0.09639,-0.09983 0.147122,-0.234634 0.147122,-0.396433 0,-0.08733 -0.0154,-0.163066 -0.0453,-0.226481 -0.02989,-0.06341 -0.07103,-0.110341 -0.124655,-0.147122 -0.05382,-0.0366 -0.173757,-0.08552 -0.356754,-0.147122 -0.132989,-0.04656 -0.210898,-0.08063 -0.237714,-0.101825 -0.04512,-0.03588 -0.06795,-0.08479 -0.06795,-0.147122 0,-0.06378 0.02101,-0.117771 0.06795,-0.158537 0.04693,-0.04076 0.11922,-0.06233 0.215248,-0.06233 0.168864,0 0.263261,0.09277 0.28301,0.277394 l 0.215248,-0.03406 c -0.01485,-0.116863 -0.0404,-0.209087 -0.07936,-0.271777 -0.03896,-0.06269 -0.09657,-0.115596 -0.169952,-0.152919 -0.0732,-0.03714 -0.157449,-0.05092 -0.254383,-0.05092 z m 1.353269,0 c -0.177018,0 -0.326314,0.07283 -0.441729,0.226481 -0.115415,0.153644 -0.169951,0.376139 -0.169951,0.668209 0,0.281381 0.05562,0.501883 0.169951,0.651178 0.114328,0.149116 0.262537,0.220865 0.447345,0.220865 0.146942,0 0.268698,-0.04403 0.367987,-0.135889 0.09947,-0.09186 0.171582,-0.227024 0.209449,-0.407666 l -0.226481,-0.03968 c -0.06505,0.231373 -0.184989,0.344977 -0.351135,0.345339 -0.105812,0 -0.192238,-0.04494 -0.266161,-0.141506 -0.07393,-0.09675 -0.115777,-0.240251 -0.124655,-0.430314 h 0.973868 v -0.07936 c 0,-0.285728 -0.05689,-0.500251 -0.169951,-0.651178 -0.112697,-0.150927 -0.249854,-0.226481 -0.418537,-0.226481 z m 1.341855,0 c -0.05291,0 -0.09911,0.01793 -0.141506,0.05653 -0.0424,0.03859 -0.09059,0.118676 -0.141505,0.237714 v -0.260543 h -0.198216 v 1.692991 h 0.220864 v -0.883095 c 0,-0.123206 0.0116,-0.241701 0.03968,-0.351136 0.01595,-0.06269 0.04602,-0.112154 0.08498,-0.147122 0.03896,-0.03497 0.08335,-0.05092 0.130272,-0.05092 0.052,0 0.103638,0.02083 0.158537,0.06233 l 0.07356,-0.26616 c -0.07718,-0.06161 -0.152739,-0.09059 -0.226662,-0.09059 z m 2.706357,0 c -0.174843,0 -0.318886,0.07356 -0.430314,0.220864 -0.111066,0.147122 -0.169951,0.368167 -0.169951,0.662411 0,0.291889 0.05943,0.513116 0.169951,0.662413 0.110342,0.149114 0.248404,0.220863 0.4189,0.220863 0.14078,0 0.261811,-0.05236 0.362369,-0.158536 0.100557,-0.106174 0.161798,-0.262356 0.186801,-0.464196 l -0.215247,-0.03406 c -0.01595,0.144404 -0.05363,0.248223 -0.11324,0.317073 -0.05961,0.06849 -0.13136,0.101827 -0.215248,0.101827 -0.106899,0 -0.197854,-0.04983 -0.266161,-0.152921 -0.06831,-0.103094 -0.101826,-0.267972 -0.101826,-0.498258 0,-0.223219 0.03606,-0.384293 0.107625,-0.487024 0.07157,-0.102733 0.162703,-0.158537 0.271777,-0.158537 0.07283,0 0.134982,0.02827 0.186801,0.08498 0.05218,0.05653 0.08679,0.146398 0.107624,0.260544 l 0.215247,-0.0453 c -0.02591,-0.178286 -0.08316,-0.312906 -0.175568,-0.402049 -0.0924,-0.08932 -0.204558,-0.130091 -0.33954,-0.130091 z m 1.262677,0 c -0.177018,0 -0.326313,0.07283 -0.441729,0.226481 -0.115414,0.153644 -0.169951,0.376139 -0.169951,0.668209 0,0.281381 0.05562,0.501883 0.169951,0.651178 0.114509,0.149116 0.262537,0.220865 0.447345,0.220865 0.14658,0 0.268517,-0.04403 0.367987,-0.135889 0.09929,-0.09186 0.171401,-0.227024 0.209449,-0.407666 l -0.22648,-0.03968 c -0.06505,0.231373 -0.179735,0.344977 -0.345339,0.345339 -0.105811,0 -0.197853,-0.04494 -0.271777,-0.141506 -0.07392,-0.09675 -0.115596,-0.240251 -0.124655,-0.430314 h 0.973868 v -0.07936 c 0,-0.285728 -0.05689,-0.500251 -0.169951,-0.651178 -0.112335,-0.150927 -0.249854,-0.226481 -0.418718,-0.226481 z m 1.307973,0 c -0.154007,0 -0.275582,0.04548 -0.36237,0.135888 -0.08697,0.09023 -0.130271,0.206732 -0.130271,0.351136 0,0.08389 0.01323,0.154732 0.0453,0.220865 0.03189,0.06595 0.07791,0.119219 0.135889,0.158537 0.05762,0.03932 0.173756,0.09095 0.345339,0.147122 0.118494,0.03823 0.195498,0.07085 0.226481,0.09621 0.04494,0.03714 0.06795,0.08588 0.06795,0.152921 0,0.07755 -0.02681,0.14223 -0.07936,0.192418 -0.05218,0.05055 -0.125199,0.07356 -0.220864,0.07356 -0.09585,0 -0.174482,-0.02681 -0.232098,-0.08498 -0.05762,-0.05816 -0.09476,-0.146578 -0.107624,-0.26616 l -0.220865,0.0453 c 0.04982,0.363276 0.230649,0.543736 0.543555,0.543555 0.166871,0 0.299861,-0.04729 0.396433,-0.147122 0.09657,-0.09983 0.147121,-0.234634 0.147121,-0.396433 0,-0.08733 -0.0154,-0.163066 -0.0453,-0.226481 -0.02989,-0.06341 -0.07646,-0.110341 -0.130271,-0.147122 -0.05363,-0.0366 -0.168139,-0.08552 -0.351137,-0.147122 -0.132989,-0.04656 -0.216515,-0.08063 -0.243512,-0.101825 -0.04512,-0.03588 -0.06795,-0.08479 -0.06795,-0.147122 0,-0.06378 0.02663,-0.117771 0.07356,-0.158537 0.04692,-0.04076 0.119582,-0.06233 0.215248,-0.06233 0.168864,0 0.263262,0.09277 0.283011,0.277394 l 0.215247,-0.03406 c -0.01504,-0.116863 -0.04022,-0.209087 -0.07936,-0.271777 A 0.42361008,0.42361008 0 0 0 24.51807,18.256366 c -0.07265,-0.03714 -0.15745,-0.05092 -0.254202,-0.05092 z m -5.050526,0.03388 0.492641,1.692991 h 0.20945 l 0.492641,-1.692991 h -0.226481 l -0.288808,1.036196 c -0.03497,0.125198 -0.06577,0.233366 -0.08498,0.32269 -0.02409,-0.112515 -0.0471,-0.230648 -0.07936,-0.345338 l -0.28301,-1.013548 z m 1.38715,0 v 1.692991 h 0.220865 V 18.23933 Z m -7.258625,0.02265 c -0.175206,0 -0.316168,0.07863 -0.430314,0.232098 -0.114328,0.153645 -0.175569,0.37614 -0.175569,0.668209 0,0.28138 0.05653,0.496265 0.169952,0.64538 0.113422,0.149116 0.264349,0.226481 0.447345,0.226481 0.14531,0 0.263986,-0.04964 0.36237,-0.141505 0.0982,-0.09186 0.166147,-0.227024 0.203833,-0.407666 l -0.220864,-0.03406 c -0.06432,0.231373 -0.181185,0.344976 -0.345339,0.345338 -0.104905,0 -0.192962,-0.04494 -0.26616,-0.141506 -0.0732,-0.09675 -0.115777,-0.240251 -0.124656,-0.430313 h 0.962454 l 0.0056,-0.07936 c 0,-0.285728 -0.05798,-0.505867 -0.169951,-0.656794 -0.111973,-0.150927 -0.251848,-0.2263 -0.418719,-0.2263 z m -2.485674,0.03968 0.396432,1.692991 h 0.232097 l 0.260544,-1.302357 0.0453,0.288809 0.209449,1.013548 h 0.226481 l 0.402049,-1.692991 h -0.20945 l -0.220864,0.979484 -0.07356,0.328307 -0.06795,-0.328307 -0.192419,-0.979484 h -0.226481 l -0.203832,0.990899 -0.06795,0.351137 -0.07936,-0.36237 -0.203833,-0.979486 h -0.226662 z m 14.092734,0.01703 v 0.07936 h 0.215248 v 0.566202 h 0.08498 v -0.566193 h 0.215247 v -0.07936 z m 0.600266,0 v 0.64538 h 0.07936 v -0.549172 l 0.186802,0.549172 h 0.07936 l 0.186802,-0.537938 v 0.537938 h 0.08498 V 18.31869 H 26.04763 l -0.15292,0.452961 c -0.0154,0.0453 -0.02645,0.07809 -0.03406,0.101827 l -0.03406,-0.09621 -0.15292,-0.458578 z m -7.909985,0.118856 c 0.109979,0 0.200571,0.05327 0.271777,0.158537 0.04892,0.07211 0.08063,0.18191 0.09059,0.328307 h -0.730355 c 0.0069,-0.148571 0.04892,-0.263261 0.118857,-0.351136 0.06993,-0.08787 0.150383,-0.135708 0.249129,-0.135708 z m 5.31107,0 c 0.109617,0 0.200572,0.05327 0.271777,0.158537 0.04892,0.07211 0.08063,0.18191 0.09059,0.328307 H 22.58229 c 0.0069,-0.148571 0.04892,-0.263261 0.118857,-0.351136 0.06975,-0.08751 0.150202,-0.135708 0.249129,-0.135708 z m -9.608411,0.06233 c 0.108711,0 0.196041,0.05327 0.26616,0.158536 0.04838,0.07211 0.08063,0.181909 0.09059,0.328307 h -0.719123 c 0.0069,-0.148571 0.04366,-0.268878 0.113241,-0.356753 0.06903,-0.08769 0.151108,-0.13009 0.249129,-0.13009 z m 1.404182,0 c 0.0982,0 0.181728,0.05454 0.249129,0.158536 0.06741,0.104181 0.09621,0.264711 0.09621,0.487024 0,0.216517 -0.03189,0.377953 -0.101825,0.487025 -0.06993,0.109074 -0.153283,0.164154 -0.243513,0.164154 -0.06631,0 -0.126648,-0.02229 -0.181185,-0.06795 -0.05472,-0.04566 -0.09476,-0.111066 -0.124655,-0.198216 -0.02989,-0.08715 -0.0453,-0.221227 -0.0453,-0.396432 0,-0.20637 0.03678,-0.360921 0.107624,-0.469994 0.07085,-0.109073 0.153282,-0.164153 0.243513,-0.164153 z"
     id="path4"
     inkscape:connector-curvature="0"
     style="stroke-width:0.18118481" />
  <path
     d="m 7.6825599,16.704877 -0.8435964,0.362369 0.781269,0.334105 0.9059239,-0.334105 z m -1.2682937,0.452962 -0.028268,1.630663 1.2342309,0.543554 v -1.692991 z m 2.5365875,0 -1.1153734,0.424696 v 1.596601 l 1.1153734,-0.452962 z m 1.3306213,-5.073175 -0.8493948,0.36237 0.7870678,0.334104 0.905924,-0.334104 z m -1.1777019,0.481408 v 1.630664 l 1.0530469,0.30584 0.03406,-1.483542 z m 2.3554029,0.09059 -0.996516,0.424698 v 1.602398 l 0.996516,-0.452962 z M 6.2925105,14.37973 5.4489132,14.7421 6.2301822,15.076204 7.1361069,14.7421 Z m -1.2682937,0.452962 -0.028268,1.630664 1.234231,0.543554 v -1.692991 z m 2.5365866,0 -1.1153735,0.424697 v 1.596601 l 1.1153735,-0.45296 z m 1.4494786,-0.513116 -0.8435964,0.36237 0.781269,0.334105 0.905924,-0.334105 z m -1.2682937,0.452962 -0.028265,1.630664 1.2342309,0.543555 v -1.692811 z m 2.5365877,0 -1.1153737,0.424698 v 1.5966 l 1.1153737,-0.452962 z m 2.657438,-2.687876 -0.843596,0.36237 0.781269,0.334104 0.905923,-0.334104 z m -1.268294,0.452962 -0.02827,1.630664 1.234231,0.543554 v -1.69281 z m 2.536588,0 -1.115375,0.424697 v 1.596601 l 1.115375,-0.452962 z"
     id="path6"
     inkscape:connector-curvature="0"
     style="fill:#f7a80d;stroke-width:0.18118481" />
</svg>
